<svg width="18" height="18" viewBox="0 0 18 18" fill="none" xmlns="http://www.w3.org/2000/svg">
<g clip-path="url(#clip0_46_1672)">
<path d="M17.1384 5.15023C16.4037 3.59281 15.24 2.28499 13.774 1.36741C11.7349 0.0947584 9.31967 -0.309538 6.97827 0.231868C4.63686 0.769758 2.6435 2.19007 1.37085 4.22913C0.0946731 6.2682 -0.309624 8.67991 0.231782 11.0248C0.773189 13.3662 2.1935 15.3596 4.22905 16.6323C5.66342 17.5287 7.30874 18.0034 8.99272 18.0034H9.10171C10.7787 17.9823 12.4099 17.4971 13.8232 16.6041C14.2345 16.344 14.354 15.8026 14.0939 15.3912C13.8337 14.9799 13.2923 14.8604 12.881 15.1205C11.7455 15.8412 10.4306 16.2315 9.08061 16.2491C7.69546 16.2666 6.34194 15.8834 5.16069 15.1487C3.51889 14.1221 2.37631 12.519 1.94389 10.6346C1.51147 8.75023 1.83491 6.8096 2.86147 5.16781C4.97788 1.78226 9.45678 0.748665 12.8423 2.86507C14.0236 3.60335 14.9587 4.65452 15.5494 5.90609C16.1259 7.12601 16.3509 8.47952 16.1998 9.81546C16.147 10.2971 16.4916 10.733 16.9767 10.7858C17.4583 10.8385 17.8943 10.494 17.947 10.0088C18.1333 8.34593 17.8521 6.66546 17.1384 5.15023Z" fill="#2473B3"/>
<path d="M11.907 5.94814L7.66718 10.188L6.0957 8.6165C5.75117 8.27197 5.1957 8.27197 4.85117 8.6165C4.50664 8.96103 4.50664 9.5165 4.85117 9.86103L7.04492 12.0548C7.21718 12.227 7.44218 12.3114 7.66718 12.3114C7.89218 12.3114 8.11718 12.227 8.28945 12.0548L13.148 7.19267C13.4926 6.84814 13.4926 6.29267 13.148 5.94814C12.8035 5.60713 12.248 5.60713 11.907 5.94814Z" fill="#2473B3"/>
</g>
<defs>
<clipPath id="clip0_46_1672">
<rect width="18" height="18" fill="white"/>
</clipPath>
</defs>
</svg>
