<svg width="53" height="52" viewBox="0 0 53 52" fill="none" xmlns="http://www.w3.org/2000/svg">
<circle cx="26.1396" cy="26" r="26" fill="#6CACDF"/>
<path fill-rule="evenodd" clip-rule="evenodd" d="M33.9455 37.0096C32.3595 38.3905 30.3223 39.1425 27.7246 39.2792V42H25.3319V39.2245C21.8728 38.91 18.7418 37.5018 16.021 35.1228L18.7828 31.8414C20.8884 33.6735 23.0623 34.7673 25.3319 35.1228V27.7944C22.4744 27.0971 20.3962 26.2084 19.0426 25.1146C17.7437 24.0071 17.1011 22.3391 17.1011 20.1925C17.1011 18.0049 17.8394 16.2275 19.3434 14.8329C20.8884 13.4657 22.8845 12.7 25.3319 12.577V10.6765H27.7246V12.6043C30.5001 12.8231 33.1115 13.7665 35.5725 15.4482L33.1252 18.9347C31.4708 17.7452 29.6661 16.9932 27.7246 16.7334V23.8294H27.8476C30.7325 24.5267 32.8791 25.4427 34.2463 26.6049C35.5725 27.7534 36.2562 29.4214 36.2562 31.6227C36.2562 33.8102 35.4905 35.6423 33.9455 37.0096Z" fill="white"/>
<path d="M21.7109 20.6234C21.7109 21.4574 21.957 22.1547 22.4492 22.6333C22.9688 23.1255 23.9395 23.604 25.3478 24.0552V17.5198C24.213 17.6018 23.3243 17.9573 22.668 18.5315C22.0391 19.0784 21.7109 19.7757 21.7109 20.6234Z" fill="#6CACDF"/>
<path d="M27.7405 29.3464V36.1416C28.971 36.0049 29.9144 35.6631 30.6253 35.0615C31.309 34.5146 31.6645 33.7626 31.6645 32.8739C31.6645 32.0125 31.4047 31.3016 30.8304 30.7957C30.2972 30.2488 29.2581 29.7839 27.7405 29.3464Z" fill="#6CACDF"/>
</svg>
