<svg width="22" height="16" viewBox="0 0 22 16" fill="none" xmlns="http://www.w3.org/2000/svg">
<path d="M13.6755 8.91113L11.9079 10.6847C11.1911 11.4041 9.92986 11.4196 9.19756 10.6847L7.42985 8.91113L1.08105 15.2805C1.31738 15.3898 1.57794 15.455 1.85495 15.455H19.2505C19.5275 15.455 19.788 15.3899 20.0242 15.2806L13.6755 8.91113Z" fill="#2473B3"/>
<path d="M19.2505 0.615723H1.85497C1.57797 0.615723 1.3174 0.680935 1.08116 0.790214L7.8653 7.59686C7.86575 7.59731 7.86629 7.59739 7.86674 7.59785C7.86702 7.59814 7.86721 7.59852 7.86728 7.59892L10.0732 9.81211C10.3075 10.0464 10.7981 10.0464 11.0324 9.81211L13.2378 7.59929C13.2378 7.59929 13.2384 7.5983 13.2388 7.59785C13.2388 7.59785 13.2398 7.59731 13.2403 7.59686L20.0242 0.790173C19.788 0.680853 19.5275 0.615723 19.2505 0.615723ZM0.197287 1.655C0.0750234 1.90225 0 2.1767 0 2.4707V13.6005C0 13.8945 0.074941 14.169 0.197246 14.4162L6.55705 8.03583L0.197287 1.655ZM20.9082 1.65492L14.5485 8.03583L20.9082 14.4163C21.0305 14.1691 21.1055 13.8946 21.1055 13.6005V2.4707C21.1055 2.17662 21.0305 1.90217 20.9082 1.65492Z" fill="#2473B3"/>
</svg>
