<svg width="32" height="32" viewBox="0 0 32 32" fill="none" xmlns="http://www.w3.org/2000/svg">
<g clip-path="url(#clip0_1_32393)">
<path d="M16 4.98745C12.9562 4.98745 10.4937 7.4562 10.4937 10.4937C10.4937 13.5312 12.9562 16 16 16C19.0437 16 21.5062 13.5375 21.5062 10.4937C21.5062 7.44995 19.0437 4.98745 16 4.98745ZM16.525 13.4875C16.3687 13.625 16.1812 13.6937 15.95 13.6937C15.7187 13.6937 15.5312 13.625 15.375 13.4875C15.2187 13.35 15.1437 13.175 15.1437 12.9625C15.1437 12.75 15.2187 12.575 15.375 12.4375C15.525 12.3 15.7187 12.2312 15.95 12.2312C16.1812 12.2312 16.3687 12.3 16.525 12.4375C16.6812 12.575 16.7562 12.75 16.7562 12.9625C16.7562 13.175 16.675 13.3562 16.525 13.4875ZM17.8875 9.6437C17.7937 9.83745 17.6374 10.0375 17.4312 10.2437L16.9375 10.7062C16.7999 10.8437 16.6999 10.9812 16.6437 11.1187C16.5875 11.2562 16.5625 11.4375 16.5562 11.6562H15.325C15.325 11.2375 15.375 10.9062 15.4687 10.6625C15.5625 10.4187 15.7187 10.2125 15.9312 10.0312C16.1437 9.8562 16.3062 9.6937 16.4125 9.5437C16.525 9.3937 16.575 9.2312 16.575 9.0562C16.575 8.62495 16.3875 8.4062 16.0125 8.4062C15.8437 8.4062 15.7 8.4687 15.5937 8.5937C15.4875 8.7187 15.4312 8.8937 15.425 9.1062H13.9687C13.975 8.5312 14.1562 8.08745 14.5125 7.7687C14.8687 7.44995 15.3687 7.28745 16.0125 7.28745C16.6562 7.28745 17.15 7.43745 17.5 7.7312C17.85 8.02495 18.025 8.4437 18.025 8.9937C18.025 9.2312 17.975 9.44995 17.8875 9.6437ZM13.2187 18.4562C13.9625 17.7125 14.95 17.3062 16 17.3062C17.05 17.3062 18.0375 17.7125 18.7812 18.4562L22.4375 22.1124L28.8624 15.6875V6.98745C28.8624 5.16245 27.3812 3.6812 25.5562 3.6812H6.4687C4.6437 3.6812 3.16245 5.16245 3.16245 6.98745V15.75L9.5437 22.1312L13.2187 18.4562ZM16 4.36245C19.3812 4.36245 22.1312 7.11245 22.1312 10.4937C22.1312 13.875 19.3812 16.625 16 16.625C12.6187 16.625 9.8687 13.875 9.8687 10.4937C9.8687 7.11245 12.6187 4.36245 16 4.36245ZM20.4312 3.0562H11.5687L13.6625 0.962451C14.95 -0.325049 17.0374 -0.325049 18.3312 0.962451L20.4312 3.0562ZM30.975 13.5687L29.4874 15.0562V12.0812L30.975 13.5687ZM9.09995 22.575L1.13745 30.5375C0.781201 30.0125 0.574951 29.3812 0.574951 28.7V14.05L9.09995 22.575ZM1.0187 13.6125L0.999951 13.5937L2.53745 12.0625V15.125L1.0187 13.6125ZM31.4187 14.0125V28.7C31.4187 29.3812 31.2125 30.0125 30.8562 30.5375L22.875 22.5562L31.4187 14.0125ZM18.3375 18.9L30.4625 31.025C29.9437 31.5499 29.2437 31.9 28.4687 31.9874L3.7687 32C2.89995 31.9687 2.11245 31.6 1.53745 31.025L13.6625 18.9C14.9562 17.6062 17.0437 17.6062 18.3375 18.9Z" fill="#2473B3"/>
</g>
<defs>
<clipPath id="clip0_1_32393">
<rect width="32" height="32" fill="white"/>
</clipPath>
</defs>
</svg>
