<svg width="23" height="21" viewBox="0 0 23 21" fill="none" xmlns="http://www.w3.org/2000/svg">
<path d="M16.2465 0C20.1042 0 22.3838 2.21485 22.3838 5.97514V6.01685H17.6435C15.4376 6.02073 13.6506 7.76312 13.6466 9.91393C13.6436 12.0696 15.4326 13.8197 17.6435 13.8227H22.3878V14.1651C22.3878 17.9254 20.1082 20.149 16.2505 20.149H6.13823C2.27957 20.149 0 17.9254 0 14.1651V5.97514C0 2.21485 2.27957 0 6.13823 0H16.2465ZM11.6227 4.33752H5.3054C4.83576 4.33947 4.45467 4.71103 4.45267 5.16991C4.45069 5.63073 4.83277 6.00618 5.3054 6.00812H11.6307C12.1033 6.00618 12.4854 5.63073 12.4834 5.16894C12.4814 4.70812 12.0954 4.33559 11.6227 4.33752Z" fill="white"/>
<path opacity="0.4" d="M15.7133 10.4064C15.9474 11.4711 16.8809 12.2202 17.9466 12.2008H21.5846C22.028 12.2008 22.3877 11.8335 22.3877 11.3795V8.54575C22.3868 8.09277 22.028 7.72455 21.5846 7.72357H17.861C16.6487 7.72747 15.6695 8.73376 15.6714 9.97385C15.6714 10.119 15.6857 10.2641 15.7133 10.4064Z" fill="white"/>
<path d="M17.9104 11.0817C18.5286 11.0817 19.0298 10.5806 19.0298 9.96234C19.0298 9.34412 18.5286 8.84296 17.9104 8.84296C17.2922 8.84296 16.791 9.34412 16.791 9.96234C16.791 10.5806 17.2922 11.0817 17.9104 11.0817Z" fill="white"/>
</svg>
