<svg width="24" height="23" viewBox="0 0 24 23" fill="none" xmlns="http://www.w3.org/2000/svg">
<path d="M23.5 1.99971H14V0.499705C14 0.424551 13.983 0.350373 13.9503 0.282688C13.9176 0.215003 13.8701 0.155552 13.8113 0.108756C13.7525 0.0619599 13.6839 0.0290227 13.6106 0.0123934C13.5373 -0.00423582 13.4612 -0.00412916 13.388 0.0127055L0.388 3.01271C0.277783 3.03804 0.179409 3.09999 0.10894 3.18844C0.0384697 3.27689 6.66312e-05 3.38662 0 3.49971L0 20.4997C4.54341e-05 20.6191 0.0428206 20.7346 0.120589 20.8252C0.198357 20.9158 0.305983 20.9756 0.424 20.9937L13.424 22.9937C13.4953 23.0048 13.5681 23.0004 13.6375 22.9807C13.7068 22.9609 13.7711 22.9264 13.8259 22.8795C13.8806 22.8325 13.9245 22.7742 13.9546 22.7087C13.9846 22.6431 14.0001 22.5718 14 22.4997V20.9997H23.5C23.6326 20.9997 23.7598 20.947 23.8536 20.8533C23.9473 20.7595 24 20.6323 24 20.4997V2.49971C24 2.3671 23.9473 2.23992 23.8536 2.14615C23.7598 2.05238 23.6326 1.99971 23.5 1.99971ZM14 8.99971H17V10.9997H14V8.99971ZM4.076 15.2347L6.245 11.7647C6.29501 11.6854 6.32154 11.5935 6.32154 11.4997C6.32154 11.4059 6.29501 11.314 6.245 11.2347L4.077 7.76471C4.03893 7.70909 4.0125 7.64636 3.99929 7.58028C3.98608 7.51419 3.98637 7.44612 4.00013 7.38015C4.0139 7.31418 4.04086 7.25167 4.07939 7.19638C4.11793 7.14109 4.16724 7.09416 4.22437 7.05842C4.2815 7.02267 4.34526 6.99884 4.41184 6.98836C4.47841 6.97788 4.54641 6.98096 4.61176 6.99743C4.67711 7.0139 4.73846 7.0434 4.79211 7.08418C4.84577 7.12495 4.89063 7.17615 4.924 7.23471L6.576 9.87771C6.759 10.1697 7.241 10.1697 7.424 9.87771L9.076 7.23471C9.11063 7.17884 9.15595 7.13037 9.20936 7.09207C9.26278 7.05377 9.32323 7.02641 9.38725 7.01154C9.45127 6.99667 9.5176 6.9946 9.58243 7.00544C9.64725 7.01628 9.7093 7.03982 9.765 7.07471C9.82076 7.10943 9.86914 7.15479 9.90736 7.20821C9.94558 7.26164 9.9729 7.32207 9.98776 7.38605C10.0026 7.45004 10.0047 7.51632 9.99396 7.58112C9.98319 7.64592 9.95976 7.70797 9.925 7.76371L7.756 11.2337C7.70599 11.313 7.67946 11.4049 7.67946 11.4987C7.67946 11.5925 7.70599 11.6844 7.756 11.7637L9.924 15.2337C9.9588 15.2894 9.98229 15.3514 9.99314 15.4161C10.004 15.4809 10.002 15.5472 9.9872 15.6111C9.97243 15.6751 9.94521 15.7356 9.90709 15.789C9.86896 15.8425 9.82068 15.8879 9.765 15.9227C9.65156 15.9896 9.51677 16.0102 9.38852 15.9804C9.26026 15.9507 9.14837 15.8727 9.076 15.7627L7.424 13.1197C7.37862 13.0483 7.31593 12.9895 7.24176 12.9488C7.16758 12.9081 7.08433 12.8869 6.99972 12.887C6.91512 12.8871 6.83192 12.9085 6.75784 12.9494C6.68376 12.9903 6.62121 13.0492 6.576 13.1207L4.924 15.7637C4.85147 15.8735 4.73958 15.9513 4.6114 15.9811C4.48321 16.0108 4.3485 15.9903 4.235 15.9237C4.17932 15.8889 4.13104 15.8435 4.09291 15.79C4.05479 15.7366 4.02757 15.6761 4.0128 15.6121C3.99804 15.5482 3.99602 15.4819 4.00686 15.4171C4.01771 15.3524 4.0412 15.2904 4.076 15.2347ZM14 11.9997H17V13.9997H14V11.9997ZM18 11.9997H23V13.9997H18V11.9997ZM18 10.9997V8.99971H23V10.9997H18ZM18 7.99971V5.99971H23V7.99971H18ZM17 7.99971H14V5.99971H17V7.99971ZM14 14.9997H17V16.9997H14V14.9997ZM18 14.9997H23V16.9997H18V14.9997ZM23 4.99971H18V2.99971H23V4.99971ZM17 2.99971V4.99971H14V2.99971H17ZM14 17.9997H17V19.9997H14V17.9997ZM18 19.9997V17.9997H23V19.9997H18Z" fill="white"/>
</svg>
