<svg width="18" height="25" viewBox="0 0 18 25" fill="none" xmlns="http://www.w3.org/2000/svg">
<path d="M8.9943 0C4.03482 0 0 4.03482 0 8.99426C0 15.1491 8.04902 24.1847 8.39171 24.5663C8.7136 24.9249 9.27559 24.9242 9.59689 24.5663C9.93959 24.1847 17.9886 15.1491 17.9886 8.99426C17.9885 4.03482 13.9537 0 8.9943 0ZM8.9943 13.5195C6.49906 13.5195 4.46909 11.4895 4.46909 8.99426C4.46909 6.49901 6.49911 4.46904 8.9943 4.46904C11.4895 4.46904 13.5195 6.49906 13.5195 8.9943C13.5195 11.4895 11.4895 13.5195 8.9943 13.5195Z" fill="#2473B3"/>
<path d="M12.0783 10.3566C12.1322 10.317 12.1747 10.2638 12.2015 10.2026C12.2283 10.1413 12.2384 10.074 12.2309 10.0075C12.2234 9.94106 12.1985 9.87775 12.1587 9.82399C12.1189 9.77023 12.0656 9.72792 12.0042 9.70132V9.17865L11.6986 9.30852V9.70132C11.6372 9.72791 11.5839 9.77022 11.5441 9.824C11.5043 9.87777 11.4793 9.9411 11.4718 10.0076C11.4643 10.0741 11.4745 10.1414 11.5013 10.2027C11.5281 10.264 11.5706 10.3171 11.6245 10.3568C11.5766 10.392 11.5375 10.438 11.5106 10.4911C11.4837 10.5442 11.4696 10.6028 11.4695 10.6623V11.0441C11.4695 11.0847 11.4856 11.1235 11.5142 11.1522C11.5429 11.1808 11.5817 11.1969 11.6222 11.1969H12.0806C12.1211 11.1969 12.16 11.1808 12.1886 11.1522C12.2173 11.1235 12.2334 11.0847 12.2334 11.0441V10.6622C12.2333 10.6027 12.2192 10.544 12.1922 10.4909C12.1653 10.4379 12.1263 10.3919 12.0783 10.3566ZM11.2403 9.50255V10.6332C11.2411 10.7646 11.2077 10.894 11.1435 11.0086C11.0792 11.1233 10.9862 11.2192 10.8736 11.2871C10.2894 11.6283 9.62504 11.8081 8.94852 11.8081C8.27199 11.8081 7.60762 11.6283 7.02344 11.2871C6.91086 11.2192 6.81787 11.1233 6.75358 11.0086C6.6893 10.894 6.65593 10.7646 6.65675 10.6332V9.50255L8.53142 10.2955C8.66348 10.351 8.80528 10.3795 8.94852 10.3795C9.09176 10.3795 9.23356 10.351 9.36562 10.2955L11.2403 9.50255Z" fill="#2473B3"/>
<path d="M12.3152 7.87152L9.24606 6.57285C9.15174 6.53318 9.05045 6.51274 8.94813 6.51274C8.8458 6.51274 8.74451 6.53318 8.6502 6.57285L5.58107 7.87152C5.49811 7.90661 5.42733 7.96536 5.37757 8.04044C5.32781 8.11552 5.30127 8.20359 5.30127 8.29366C5.30127 8.38374 5.32781 8.47181 5.37757 8.54689C5.42733 8.62197 5.49811 8.68072 5.58107 8.71581L8.6502 10.0145C8.7445 10.0542 8.8458 10.0747 8.94813 10.0747C9.05045 10.0747 9.15175 10.0542 9.24606 10.0145L12.3152 8.71581C12.3981 8.68072 12.4689 8.62197 12.5187 8.54689C12.5684 8.47181 12.595 8.38374 12.595 8.29366C12.595 8.20359 12.5684 8.11552 12.5187 8.04044C12.4689 7.96536 12.3981 7.90661 12.3152 7.87152Z" fill="#2473B3"/>
</svg>
