<svg width="23" height="20" viewBox="0 0 23 20" fill="none" xmlns="http://www.w3.org/2000/svg">
<path d="M13.6591 3.96078C14.6847 4.60379 15.4038 5.6919 15.5348 6.95494C15.9648 7.15724 16.4341 7.26233 16.9093 7.26274C18.7061 7.26274 20.1623 5.80649 20.1623 4.01005C20.1623 2.21333 18.7061 0.75708 16.9093 0.75708C15.1298 0.757634 13.6863 2.18787 13.6591 3.96078ZM11.5281 10.6212C13.3248 10.6212 14.781 9.16465 14.781 7.3682C14.781 5.57176 13.3245 4.11551 11.5281 4.11551C9.73161 4.11551 8.27453 5.57204 8.27453 7.36848C8.27453 9.16492 9.73161 10.6212 11.5281 10.6212ZM12.9079 10.8429H10.1476C7.85102 10.8429 5.98261 12.7116 5.98261 15.0082V18.3838L5.99119 18.4367L6.22371 18.5095C8.41542 19.1943 10.3195 19.4226 11.8868 19.4226C14.9479 19.4226 16.7222 18.5499 16.8316 18.4942L17.0489 18.3843H17.0721V15.0082C17.0729 12.7116 15.2045 10.8429 12.9079 10.8429ZM18.2898 7.48474H15.5508C15.523 8.54233 15.0782 9.54605 14.3135 10.2771C16.3549 10.8841 17.8485 12.7772 17.8485 15.0132V16.0534C20.5529 15.9543 22.1113 15.1878 22.214 15.1364L22.4313 15.0262H22.4545V11.6495C22.4545 9.35315 20.5861 7.48474 18.2898 7.48474ZM5.82013 7.2633C6.4565 7.2633 7.04857 7.07756 7.55014 6.76118C7.70751 5.74323 8.24909 4.82433 9.06341 4.19357C9.06673 4.13267 9.07255 4.07233 9.07255 4.01088C9.07255 2.21416 7.61602 0.75791 5.82013 0.75791C4.02314 0.75791 2.56716 2.21416 2.56716 4.01088C2.56716 5.80677 4.02314 7.2633 5.82013 7.2633ZM8.74149 10.2771C7.98101 9.54953 7.53693 8.55223 7.50502 7.50024C7.40343 7.49276 7.30296 7.48474 7.19943 7.48474H4.43945C2.14282 7.48474 0.274414 9.35315 0.274414 11.6495V15.0256L0.282995 15.0777L0.515508 15.151C2.27375 15.6999 3.84294 15.9529 5.20591 16.0326V15.0132C5.20646 12.7772 6.69953 10.8847 8.74149 10.2771Z" fill="white"/>
</svg>
