<svg width="23" height="17" viewBox="0 0 23 17" fill="none" xmlns="http://www.w3.org/2000/svg">
<path d="M20.1017 0H3.14345C1.75285 0 0.622559 1.16454 0.622559 2.59728V14.4027C0.622559 15.8355 1.75285 17 3.14345 17H20.1017C21.4923 17 22.6226 15.8355 22.6226 14.4027V2.59728C22.6226 1.16454 21.4923 0 20.1017 0ZM7.49756 3.77772C8.76075 3.77772 9.78917 4.83747 9.78917 6.13895C9.78917 7.44024 8.76075 8.5 7.49756 8.5C6.23436 8.5 5.20595 7.44024 5.20595 6.13895C5.20595 4.83747 6.23436 3.77772 7.49756 3.77772ZM11.6226 12.5139C11.6226 12.9049 11.3146 13.2223 10.9351 13.2223H4.06006C3.68056 13.2223 3.37256 12.9049 3.37256 12.5139V12.0417C3.37256 10.6089 4.50285 9.44439 5.89345 9.44439H9.10167C10.4923 9.44439 11.6226 10.6089 11.6226 12.0417V12.5139ZM19.1851 13.2223H14.1434C13.7639 13.2223 13.4559 12.9049 13.4559 12.5139C13.4559 12.1229 13.7639 11.8056 14.1434 11.8056H19.1851C19.5646 11.8056 19.8726 12.1229 19.8726 12.5139C19.8726 12.9049 19.5646 13.2223 19.1851 13.2223ZM19.1851 9.44439H14.1434C13.7639 9.44439 13.4559 9.12705 13.4559 8.73605C13.4559 8.34505 13.7639 8.02772 14.1434 8.02772H19.1851C19.5646 8.02772 19.8726 8.34505 19.8726 8.73605C19.8726 9.12705 19.5646 9.44439 19.1851 9.44439ZM19.1851 5.66667H14.1434C13.7639 5.66667 13.4559 5.34933 13.4559 4.95833C13.4559 4.56733 13.7639 4.25 14.1434 4.25H19.1851C19.5646 4.25 19.8726 4.56733 19.8726 4.95833C19.8726 5.34933 19.5646 5.66667 19.1851 5.66667Z" fill="#2473B3"/>
</svg>
