<svg width="17" height="23" viewBox="0 0 17 23" fill="none" xmlns="http://www.w3.org/2000/svg">
<path d="M8.27476 0C3.71203 0 0 3.71203 0 8.27471C0 13.9371 7.4051 22.2499 7.72038 22.601C8.01651 22.9309 8.53354 22.9303 8.82914 22.601C9.14442 22.2499 16.5495 13.9371 16.5495 8.27471C16.5494 3.71203 12.8374 0 8.27476 0ZM8.27476 12.438C5.97914 12.438 4.11156 10.5703 4.11156 8.27471C4.11156 5.97909 5.97918 4.11152 8.27476 4.11152C10.5703 4.11152 12.4379 5.97914 12.4379 8.27476C12.4379 10.5704 10.5703 12.438 8.27476 12.438Z" fill="#2473B3"/>
</svg>
