<svg width="17" height="23" viewBox="0 0 17 23" fill="none" xmlns="http://www.w3.org/2000/svg">
<path d="M8.27476 0.151367C3.71203 0.151367 0 3.8634 0 8.42608C0 14.0885 7.4051 22.4013 7.72038 22.7524C8.01651 23.0822 8.53354 23.0817 8.82914 22.7524C9.14442 22.4013 16.5495 14.0885 16.5495 8.42608C16.5494 3.8634 12.8374 0.151367 8.27476 0.151367ZM8.27476 12.5893C5.97914 12.5893 4.11156 10.7217 4.11156 8.42608C4.11156 6.13046 5.97918 4.26289 8.27476 4.26289C10.5703 4.26289 12.4379 6.13051 12.4379 8.42613C12.4379 10.7217 10.5703 12.5893 8.27476 12.5893Z" fill="#2473B3"/>
<path d="M11.1119 9.67925C11.1614 9.64279 11.2005 9.5939 11.2252 9.53751C11.2498 9.48113 11.2592 9.41924 11.2522 9.35809C11.2453 9.29694 11.2224 9.2387 11.1858 9.18924C11.1492 9.13978 11.1002 9.10085 11.0437 9.07638V8.59552L10.7626 8.715V9.07638C10.7061 9.10084 10.657 9.13977 10.6204 9.18924C10.5838 9.23871 10.5608 9.29698 10.5539 9.35815C10.547 9.41932 10.5563 9.48124 10.581 9.53764C10.6057 9.59404 10.6448 9.64294 10.6944 9.67939C10.6503 9.71181 10.6144 9.75414 10.5896 9.80296C10.5648 9.85179 10.5518 9.90576 10.5517 9.96051V10.3118C10.5517 10.3491 10.5665 10.3848 10.5929 10.4112C10.6193 10.4375 10.655 10.4523 10.6923 10.4523H11.114C11.1513 10.4523 11.187 10.4375 11.2134 10.4112C11.2397 10.3848 11.2545 10.3491 11.2545 10.3118V9.96037C11.2544 9.90562 11.2415 9.85165 11.2167 9.80282C11.1919 9.75399 11.156 9.71167 11.1119 9.67925ZM10.3409 8.89351V9.93367C10.3416 10.0546 10.3109 10.1736 10.2518 10.2791C10.1927 10.3846 10.1071 10.4728 10.0035 10.5353C9.46608 10.8492 8.85486 11.0146 8.23246 11.0146C7.61006 11.0146 6.99884 10.8492 6.46138 10.5353C6.35782 10.4728 6.27227 10.3846 6.21312 10.2791C6.15398 10.1736 6.12328 10.0546 6.12404 9.93367V8.89351L7.84873 9.62302C7.97023 9.67405 8.10068 9.70034 8.23246 9.70034C8.36424 9.70034 8.4947 9.67405 8.61619 9.62302L10.3409 8.89351Z" fill="#2473B3"/>
<path d="M11.3302 7.39327L8.50664 6.19849C8.41987 6.16199 8.32669 6.14319 8.23255 6.14319C8.13841 6.14319 8.04523 6.16199 7.95845 6.19849L5.13485 7.39327C5.05853 7.42555 4.99342 7.4796 4.94764 7.54867C4.90186 7.61774 4.87744 7.69877 4.87744 7.78164C4.87744 7.8645 4.90186 7.94553 4.94764 8.0146C4.99342 8.08368 5.05853 8.13773 5.13485 8.17001L7.95845 9.36478C8.04522 9.40132 8.13841 9.42015 8.23255 9.42015C8.32669 9.42015 8.41988 9.40132 8.50664 9.36478L11.3302 8.17001C11.4066 8.13773 11.4717 8.08368 11.5175 8.0146C11.5632 7.94553 11.5877 7.8645 11.5877 7.78164C11.5877 7.69877 11.5632 7.61774 11.5175 7.54867C11.4717 7.4796 11.4066 7.42555 11.3302 7.39327Z" fill="#2473B3"/>
</svg>
