<svg width="716" height="161" viewBox="0 0 716 161" fill="none" xmlns="http://www.w3.org/2000/svg">
<mask id="mask0_378_29994" style="mask-type:luminance" maskUnits="userSpaceOnUse" x="49" y="43" width="190" height="118">
<path d="M49.0537 43.5586H238.348V160.997H49.0537V43.5586Z" fill="white"/>
</mask>
<g mask="url(#mask0_378_29994)">
<path fill-rule="evenodd" clip-rule="evenodd" d="M51.271 84.4207C51.271 84.4207 137.133 45.2502 150.362 44.2138C163.593 43.1764 163.722 43.9547 174.747 46.1605C185.771 48.3643 209.441 55.8871 210.997 56.5999C212.552 57.3146 213.136 61.0095 212.164 61.0095C211.191 61.0095 199.648 60.815 200.102 61.8524C200.555 62.8917 214.173 65.3547 215.018 65.8738C215.86 66.393 216.454 68.3612 214.898 68.2967C213.342 68.2312 200.29 66.6971 200.037 67.624C199.969 67.8714 199.992 69.072 201.709 69.6949C206.428 71.404 215.84 72.3925 216.611 72.8618C217.665 73.5042 218.352 75.1898 217.963 75.3844C217.574 75.579 203.111 75.1243 202.268 75.3844C201.427 75.6435 201.075 78.1309 201.075 78.1309C201.075 78.1309 220.01 81.4386 221.179 82.4115C222.345 83.3833 220.92 84.3562 220.92 84.3562C220.92 84.3562 189.402 82.606 187.716 83.0597C186.031 83.5124 186.485 84.8744 186.485 84.8744C186.485 84.8744 210.868 87.4693 217.159 88.9604C223.448 90.4515 223.838 92.2036 223.838 92.6573C223.838 93.1109 192.062 92.6573 189.013 92.9819C185.966 93.3065 186.485 94.732 186.485 94.732C186.485 94.732 216.705 97.7142 220.855 98.7535C225.004 99.7899 224.939 101.671 224.939 101.671C224.939 101.671 201.464 101.477 195.692 101.865C189.92 102.254 188.429 103.941 188.364 104.46C188.299 104.979 215.277 107.053 219.361 107.507C223.448 107.96 225.329 108.933 225.847 109.519C226.366 110.101 226.431 110.49 226.431 110.49C226.431 110.49 199.001 110.944 195.238 111.01C191.476 111.074 191.152 113.797 191.152 113.797C191.152 113.797 222.047 115.691 224.513 116.404C226.976 117.118 227.404 118.921 227.404 118.921C227.404 118.921 196.65 120.417 195.741 120.937C193.58 122.17 201.804 122.942 205.415 122.991C213.682 123.103 228.147 123.247 228.702 122.877C229.479 122.358 229.738 121.58 229.738 121.58C229.738 121.58 229.09 96.8068 224.161 80.8549C219.232 64.901 215.213 60.3613 215.213 60.3613C215.213 60.3613 216.531 61.516 218.405 64.0308C218.405 64.0308 228.701 64.3173 233.047 68.1442C237.39 71.9691 238.168 82.6696 238.297 83.1233C238.429 83.5769 231.068 84.4197 230.355 83.836C229.642 83.2533 227.889 72.456 228.183 71.9691C228.473 71.4841 229.446 72.9752 230.161 75.6014C230.874 78.2277 231.229 80.7561 232.105 81.4044C232.981 82.0526 235.282 81.4386 235.282 81.4386C235.282 81.4386 234.051 73.4289 231.683 70.349C229.316 67.2681 223.091 67.8186 222.701 67.9163C222.446 67.9809 222.105 68.8902 221.902 69.5032C224.397 74.0243 227.05 80.3513 228.831 88.7658C233.111 108.997 233.306 122.423 233.111 123.007C232.917 123.589 231.878 126.507 227.924 126.637C223.967 126.768 200.232 127.806 194.914 126.248C189.596 124.692 182.029 116.669 181.381 114.204C180.733 111.74 177.774 87.2406 172.716 70.5093C168.329 55.9996 160.691 45.7743 144.46 50.6982C132.917 54.2005 56.9126 84.9389 51.271 84.4207ZM202.436 139.283C202.436 139.283 228.377 139.029 229.09 139.788C229.803 140.547 218.973 141.896 210.025 142.064C201.075 142.233 203.019 141.896 202.436 139.283ZM201.864 134.78C201.864 134.78 227.805 134.513 228.518 135.312C229.231 136.112 218.401 137.533 209.453 137.709C200.503 137.888 202.449 137.532 201.864 134.78ZM230.906 137.534C230.906 137.534 231.198 133.609 232.526 131.081C233.856 128.552 235.51 129.006 235.51 129.006C235.51 129.006 236.223 129.59 236.191 130.01C236.158 130.433 234.05 132.541 233.241 134.939C232.43 137.339 231.942 139.284 230.906 137.534ZM180.951 139.925C180.951 139.925 180.951 127.407 180.951 126.888C180.951 126.369 187.501 128.609 193.337 132.983C199.173 137.357 198.914 140.037 198.135 140.296C197.358 140.557 191.651 136.173 188.603 134.678C185.555 133.183 184.129 132.913 184.129 132.913C184.129 132.913 184.129 144.522 180.951 139.925ZM149.034 139.803C149.034 140.269 148.655 140.646 148.188 140.646C147.724 140.646 147.346 140.269 147.346 139.803V87.0391C117.947 92.2554 60.2535 102.105 54.2873 100.18L147.346 79.4508V74.5905C118.714 81.2342 53.2499 96.184 53.2499 93.9547C53.2499 93.9547 140.642 67.3962 154.467 64.1823C153.071 62.0684 151.674 60.77 150.266 60.3613C145.336 58.9357 55.3257 91.2317 52.6662 87.8898C52.6662 87.8898 140.862 56.5041 146.309 55.3366C151.756 54.1692 156.037 54.1692 160.707 61.562C165.375 68.9537 170.529 81.8199 173.903 106.332C176.443 124.797 176.368 137.339 176.258 143.434C176.136 150.044 179.541 151.532 184.976 151.272C196.391 150.724 230.766 148.958 232.171 147.553C233.857 145.865 234.44 141.651 234.44 141.651C234.44 141.651 235.186 141.488 235.316 142.331C235.446 143.174 235.542 148.46 232.884 150.276C230.226 152.091 219.526 152.612 219.526 152.612C219.526 152.612 232.69 155.723 233.792 156.63C234.894 157.539 232.301 158.577 232.301 158.577C232.301 158.577 183.599 160.976 178.8 160.976C174.001 160.976 135.09 152.935 133.858 152.482C132.626 152.026 132.367 150.665 132.367 150.665C132.367 150.665 131.978 151.378 129.772 151.637C127.568 151.896 124.715 151.312 123.092 150.73C121.472 150.146 119.916 147.682 119.916 147.682C119.916 147.682 118.683 148.719 117.774 148.719C116.867 148.719 70.824 139.705 69.9802 139.51C69.1383 139.315 68.8137 138.537 68.8137 138.537C68.8137 138.537 67.9367 139.056 66.3166 139.056C64.6964 139.056 63.3012 138.571 62.8788 138.311C62.4584 138.052 61.9402 136.948 61.9402 136.948C61.9402 136.948 52.5362 135.49 51.5946 134.972C50.656 134.451 55.3257 134.161 55.3257 134.161C55.3257 134.161 49.0016 131.177 49.2617 130.756C49.5208 130.334 60.2858 131.566 60.2858 131.566L60.3826 128.16C60.3826 128.16 59.8321 121.611 60.9341 119.99C62.037 118.37 65.4092 117.624 67.6786 120.25C69.9499 122.877 71.3422 134.127 71.3422 134.127L116.413 140.904C116.413 140.904 113.56 123.589 119.527 120.931C125.494 118.271 130.161 121.645 133.145 127.934C136.127 134.225 136.71 144.407 136.71 144.407L168.845 149.072C168.845 149.072 169.511 130.755 167.94 113.024C164.313 113.039 157.612 113.092 155.65 113.277C152.917 113.536 151.836 112.953 151.836 112.953L151.682 92.7854C151.682 92.7854 151.505 90.5796 152.626 90.0604C153.446 89.682 159.949 88.4715 163.386 87.8468C163.056 86.6402 162.728 85.4669 162.4 84.3327C159.897 84.7884 155.164 85.6468 149.034 86.739V139.803ZM148.97 74.213C149.011 74.3108 149.034 74.4193 149.034 74.5308V79.0754L160 76.632C159.439 74.9816 158.879 73.4475 158.322 72.0307C156.348 72.4942 153.105 73.2529 148.97 74.213ZM62.5884 111.593L142.872 106.016C142.872 106.016 145.02 110.036 142.622 111.269C140.223 112.501 63.1721 113.992 62.5884 111.593ZM63.9837 122.877C65.1814 122.877 66.1533 126.012 66.1533 129.88C66.1533 133.748 65.1814 136.884 63.9837 136.884C62.783 136.884 61.8101 133.748 61.8101 129.88C61.8101 126.012 62.783 122.877 63.9837 122.877ZM125.364 124.563C127.834 124.563 129.837 129.529 129.837 135.652C129.837 141.777 127.834 146.742 125.364 146.742C122.893 146.742 120.889 141.777 120.889 135.652C120.889 129.529 122.893 124.563 125.364 124.563ZM173.577 56.0807C173.577 56.0807 189.466 56.3398 193.164 58.9357C196.859 61.5277 197.378 78.3254 197.378 78.3254C197.378 78.3254 192.84 79.3951 190.569 77.5159C189.384 76.5332 188.763 72.4355 188.036 68.2155C187.37 64.3515 186.549 60.2968 186.549 60.2968C186.549 60.2968 175.395 59.7776 173.577 56.0807ZM184.721 63.7991L185.095 66.5876C185.095 66.5876 181.395 66.4263 180.701 65.6793C180.384 65.34 179.98 64.8188 180.956 64.461C182.115 64.0376 184.721 63.7991 184.721 63.7991ZM185.847 70.9327L186.226 73.7203C186.226 73.7203 182.522 73.5599 181.829 72.8129C181.512 72.4727 181.109 71.9544 182.084 71.5946C183.242 71.1703 185.847 70.9327 185.847 70.9327Z" fill="#263A97"/>
</g>
<mask id="mask1_378_29994" style="mask-type:luminance" maskUnits="userSpaceOnUse" x="38" y="45" width="61" height="58">
<path d="M38.7959 45.7891H98.3681V102.608H38.7959V45.7891Z" fill="white"/>
</mask>
<g mask="url(#mask1_378_29994)">
<mask id="mask2_378_29994" style="mask-type:luminance" maskUnits="userSpaceOnUse" x="-14" y="-14" width="126" height="131">
<path d="M-13.0488 78.2787L29.0579 -13.0703L111.033 24.7157L68.9265 116.065L-13.0488 78.2787Z" fill="white"/>
</mask>
<g mask="url(#mask2_378_29994)">
<mask id="mask3_378_29994" style="mask-type:luminance" maskUnits="userSpaceOnUse" x="-14" y="-14" width="126" height="131">
<path d="M-13.0469 78.2787L29.0598 -13.0703L111.035 24.7157L68.9285 116.065L-13.0469 78.2787Z" fill="white"/>
</mask>
<g mask="url(#mask3_378_29994)">
<mask id="mask4_378_29994" style="mask-type:luminance" maskUnits="userSpaceOnUse" x="-14" y="-14" width="126" height="131">
<path d="M-13.0498 78.2924L29.0569 -13.0566L111.032 24.7294L68.9255 116.078L-13.0498 78.2924Z" fill="white"/>
</mask>
<g mask="url(#mask4_378_29994)">
<path d="M43.8149 100.519C41.4331 89.1751 43.2068 76.4664 49.8848 66.8209C56.2157 57.6858 66.5847 52.6221 77.2588 51.7382C78.8329 51.616 80.3905 51.5299 81.9686 51.5436C82.1045 51.5387 82.9209 51.5583 82.5494 51.5426C82.9395 51.5671 83.3394 51.572 83.7217 51.614C84.5029 51.6619 85.2939 51.7372 86.0683 51.8487C87.6258 52.053 89.1765 52.3209 90.6842 52.6807C91.3872 52.8489 92.101 53.0444 92.8059 53.2576C93.2733 53.4062 92.4217 53.1246 92.8988 53.2996C93.0905 53.3661 93.2655 53.4248 93.4581 53.4913C94.0438 53.6722 94.5913 53.7905 95.1936 53.8892C96.5331 54.0828 97.8589 53.2869 98.2354 51.9875C98.6353 50.5874 97.9899 49.419 96.7795 48.7052C95.4018 47.8692 93.7397 47.5045 92.1763 47.1193C90.7507 46.7742 89.2997 46.4847 87.8507 46.2863C84.8275 45.8746 81.7584 45.7544 78.7254 45.9411C72.8589 46.2726 66.9083 47.9494 61.7057 50.6187C56.2088 53.4414 51.3895 57.3583 47.6927 62.3282C43.8403 67.5396 41.1711 73.4745 39.812 79.8122C38.2799 86.9625 38.5028 94.2751 40.4309 101.325C40.9609 103.176 44.2129 102.465 43.8149 100.519Z" fill="#F4B536"/>
</g>
</g>
</g>
</g>
<mask id="mask5_378_29994" style="mask-type:luminance" maskUnits="userSpaceOnUse" x="49" y="0" width="14" height="39">
<path d="M49.3096 0H62.3253V38.2964H49.3096V0Z" fill="white"/>
</mask>
<g mask="url(#mask5_378_29994)">
<mask id="mask6_378_29994" style="mask-type:luminance" maskUnits="userSpaceOnUse" x="-14" y="-14" width="126" height="131">
<path d="M-13.0469 78.2806L29.0598 -13.0684L111.035 24.7177L68.9285 116.067L-13.0469 78.2806Z" fill="white"/>
</mask>
<g mask="url(#mask6_378_29994)">
<mask id="mask7_378_29994" style="mask-type:luminance" maskUnits="userSpaceOnUse" x="-14" y="-14" width="126" height="131">
<path d="M-13.0469 78.2806L29.0598 -13.0684L111.035 24.7177L68.9285 116.067L-13.0469 78.2806Z" fill="white"/>
</mask>
<g mask="url(#mask7_378_29994)">
<mask id="mask8_378_29994" style="mask-type:luminance" maskUnits="userSpaceOnUse" x="-14" y="-14" width="126" height="131">
<path d="M-13.0488 78.2845L29.0579 -13.0645L111.033 24.7216L68.9265 116.071L-13.0488 78.2845Z" fill="white"/>
</mask>
<g mask="url(#mask8_378_29994)">
<path d="M62.0538 35.6635C59.2232 24.1799 56.329 12.6894 53.2188 1.2791C52.6547 -0.789815 49.1054 -0.0144611 49.5269 2.12192C51.8871 13.9008 55.2085 25.4324 58.5309 36.964C58.8164 37.9427 60.0279 38.413 60.9421 38.0747C61.9648 37.6982 62.2855 36.6628 62.0538 35.6635Z" fill="#F4B536"/>
</g>
</g>
</g>
</g>
<mask id="mask9_378_29994" style="mask-type:luminance" maskUnits="userSpaceOnUse" x="15" y="18" width="30" height="30">
<path d="M15.0127 18.2676H44.0479V47.8034H15.0127V18.2676Z" fill="white"/>
</mask>
<g mask="url(#mask9_378_29994)">
<mask id="mask10_378_29994" style="mask-type:luminance" maskUnits="userSpaceOnUse" x="-14" y="-14" width="126" height="131">
<path d="M-13.0684 78.2591L29.0383 -13.0898L111.014 24.6962L68.907 116.045L-13.0684 78.2591Z" fill="white"/>
</mask>
<g mask="url(#mask10_378_29994)">
<mask id="mask11_378_29994" style="mask-type:luminance" maskUnits="userSpaceOnUse" x="-14" y="-14" width="126" height="131">
<path d="M-13.0518 78.2572L29.0549 -13.0918L111.03 24.6942L68.9236 116.043L-13.0518 78.2572Z" fill="white"/>
</mask>
<g mask="url(#mask11_378_29994)">
<mask id="mask12_378_29994" style="mask-type:luminance" maskUnits="userSpaceOnUse" x="-14" y="-14" width="126" height="131">
<path d="M-13.0498 78.2494L29.0569 -13.0996L111.032 24.6864L68.9255 116.035L-13.0498 78.2494Z" fill="white"/>
</mask>
<g mask="url(#mask12_378_29994)">
<path d="M43.1592 44.4282C36.8019 37.5468 30.2138 30.8717 23.6981 24.1399C21.8971 22.2841 20.0198 20.5477 18.0252 18.8699C16.5439 17.6291 14.2756 19.5963 15.487 21.1812C18.1455 24.661 21.154 27.7224 24.2359 30.8169C27.2239 33.8235 30.1943 36.8223 33.1911 39.8103C35.7009 42.3065 38.2108 44.8026 40.7031 47.336C41.4159 48.0664 42.7505 47.8327 43.3714 47.115C44.1145 46.2302 43.8554 45.1947 43.1592 44.4282Z" fill="#F4B536"/>
</g>
</g>
</g>
</g>
<mask id="mask13_378_29994" style="mask-type:luminance" maskUnits="userSpaceOnUse" x="0" y="49" width="34" height="18">
<path d="M0 49.3027H33.2903V66.3234H0V49.3027Z" fill="white"/>
</mask>
<g mask="url(#mask13_378_29994)">
<mask id="mask14_378_29994" style="mask-type:luminance" maskUnits="userSpaceOnUse" x="-14" y="-14" width="126" height="131">
<path d="M-13.0654 78.2748L29.0413 -13.0742L111.017 24.7118L68.9099 116.061L-13.0654 78.2748Z" fill="white"/>
</mask>
<g mask="url(#mask14_378_29994)">
<mask id="mask15_378_29994" style="mask-type:luminance" maskUnits="userSpaceOnUse" x="-14" y="-14" width="126" height="131">
<path d="M-13.0674 78.2767L29.0393 -13.0723L111.015 24.7138L68.9079 116.063L-13.0674 78.2767Z" fill="white"/>
</mask>
<g mask="url(#mask15_378_29994)">
<mask id="mask16_378_29994" style="mask-type:luminance" maskUnits="userSpaceOnUse" x="-14" y="-14" width="126" height="131">
<path d="M-13.0713 78.2845L29.0354 -13.0645L111.011 24.7216L68.904 116.071L-13.0713 78.2845Z" fill="white"/>
</mask>
<g mask="url(#mask16_378_29994)">
<path d="M32.087 62.4528C27.1581 60.3145 22.2459 58.14 17.3689 55.9361C14.9862 54.8606 12.6034 53.7841 10.2118 52.7262C7.68238 51.6282 5.11286 50.6661 2.55019 49.6414C0.511584 48.8357 -0.760466 51.6419 1.12268 52.689C3.45949 54.011 5.80609 55.3602 8.21917 56.5179C10.6234 57.6932 13.0795 58.8029 15.5269 59.8862C20.4381 62.0608 25.4011 64.1248 30.371 66.1262C32.7968 67.1098 34.5049 63.5 32.087 62.4528Z" fill="#F4B536"/>
</g>
</g>
</g>
</g>
<mask id="mask17_378_29994" style="mask-type:luminance" maskUnits="userSpaceOnUse" x="81" y="14" width="8" height="22">
<path d="M81.3447 14.0137H88.3532V35.5398H81.3447V14.0137Z" fill="white"/>
</mask>
<g mask="url(#mask17_378_29994)">
<mask id="mask18_378_29994" style="mask-type:luminance" maskUnits="userSpaceOnUse" x="-14" y="-14" width="126" height="131">
<path d="M-13.0645 78.2748L29.0422 -13.0742L111.018 24.7118L68.9109 116.061L-13.0645 78.2748Z" fill="white"/>
</mask>
<g mask="url(#mask18_378_29994)">
<mask id="mask19_378_29994" style="mask-type:luminance" maskUnits="userSpaceOnUse" x="-14" y="-14" width="126" height="131">
<path d="M-13.0664 78.2728L29.0403 -13.0762L111.016 24.7099L68.9089 116.059L-13.0664 78.2728Z" fill="white"/>
</mask>
<g mask="url(#mask19_378_29994)">
<mask id="mask20_378_29994" style="mask-type:luminance" maskUnits="userSpaceOnUse" x="-14" y="-14" width="126" height="131">
<path d="M-13.0684 78.2748L29.0383 -13.0742L111.014 24.7118L68.907 116.061L-13.0684 78.2748Z" fill="white"/>
</mask>
<g mask="url(#mask20_378_29994)">
<path d="M85.0621 34.0346C86.3361 27.8816 87.614 21.8176 88.2593 15.5757C88.3904 14.2743 86.3312 13.4149 85.8775 14.8345C83.9494 20.9552 82.6764 27.1542 81.3965 33.4166C80.9184 35.7632 84.5732 36.3538 85.0621 34.0346Z" fill="#F4B536"/>
</g>
</g>
</g>
</g>
<mask id="mask21_378_29994" style="mask-type:luminance" maskUnits="userSpaceOnUse" x="5" y="80" width="23" height="5">
<path d="M5.49219 80.0781H27.5189V84.083H5.49219V80.0781Z" fill="white"/>
</mask>
<g mask="url(#mask21_378_29994)">
<mask id="mask22_378_29994" style="mask-type:luminance" maskUnits="userSpaceOnUse" x="-14" y="-14" width="126" height="131">
<path d="M-13.0664 78.2572L29.0403 -13.0918L111.016 24.6942L68.9089 116.043L-13.0664 78.2572Z" fill="white"/>
</mask>
<g mask="url(#mask22_378_29994)">
<mask id="mask23_378_29994" style="mask-type:luminance" maskUnits="userSpaceOnUse" x="-14" y="-14" width="126" height="131">
<path d="M-13.0527 78.2552L29.054 -13.0938L111.029 24.6923L68.9226 116.041L-13.0527 78.2552Z" fill="white"/>
</mask>
<g mask="url(#mask23_378_29994)">
<mask id="mask24_378_29994" style="mask-type:luminance" maskUnits="userSpaceOnUse" x="-14" y="-14" width="126" height="131">
<path d="M-13.0488 78.2787L29.0579 -13.0703L111.033 24.7157L68.9265 116.065L-13.0488 78.2787Z" fill="white"/>
</mask>
<g mask="url(#mask24_378_29994)">
<path d="M25.3512 80.1836C19.0936 80.2012 12.8908 80.1983 6.65273 80.8504C5.28878 81.003 5.10398 83.1941 6.57745 83.3378C12.9641 83.9607 19.3019 83.9128 25.7041 83.8727C26.7102 83.8678 27.4563 82.7835 27.3722 81.8517C27.2656 80.7761 26.3573 80.1787 25.3512 80.1836Z" fill="#F4B536"/>
</g>
</g>
</g>
</g>
<path d="M272.421 112.935C272.187 113.96 272.001 114.845 271.861 115.593C271.72 116.342 271.65 117.043 271.65 117.696C271.65 119.328 272.221 120.634 273.365 121.616C274.507 122.597 276.201 123.088 278.444 123.088C280.076 123.088 281.416 122.807 282.466 122.247C283.519 121.686 284.384 120.94 285.06 120.009C285.735 119.076 286.271 118 286.666 116.785C287.064 115.57 287.405 114.286 287.686 112.935L293.638 84.3633H300.012L293.919 113.075C293.45 115.315 292.773 117.416 291.886 119.379C291.001 121.338 289.732 123.065 288.074 124.56C286.417 126.051 284.279 127.23 281.663 128.097C279.05 128.959 275.806 129.391 271.931 129.391C266.56 129.391 262.591 128.516 260.025 126.765C257.458 125.016 256.176 122.32 256.176 118.677C256.176 117.043 256.383 114.965 256.8 112.444C257.221 109.92 257.758 107.189 258.413 104.248L262.683 84.3633H278.585L272.421 112.935Z" fill="black" fill-opacity="0.4"/>
<path d="M316.601 103.179C317.583 102.249 318.679 101.387 319.89 100.592C320.964 99.9385 322.224 99.3299 323.67 98.769C325.118 98.2082 326.73 97.9277 328.507 97.9277C330.932 97.9277 332.938 98.5491 334.523 99.7888C336.112 101.025 336.907 102.717 336.907 104.862C336.907 105.471 336.837 106.207 336.697 107.074C336.556 107.937 336.392 108.836 336.206 109.769C336.018 110.7 335.82 111.646 335.613 112.606C335.404 113.562 335.231 114.412 335.091 115.155L332.146 128.813H317.933L321.783 110.534C321.875 109.927 321.993 109.309 322.134 108.68C322.274 108.052 322.344 107.48 322.344 106.965C322.344 106.264 322.167 105.694 321.815 105.251C321.466 104.805 320.942 104.582 320.241 104.582C319.399 104.582 318.593 104.886 317.825 105.493C317.056 106.102 316.461 106.615 316.041 107.035L311.42 128.813H297.131L303.504 98.6989H314.919L316.181 103.179H316.601Z" fill="black" fill-opacity="0.4"/>
<path d="M352.371 128.816H338.152L344.526 98.7016H358.885L352.371 128.816ZM360.701 89.5303C360.701 90.601 360.478 91.5347 360.032 92.3282C359.589 93.1233 359.008 93.8005 358.286 94.3613C357.562 94.9222 356.734 95.3428 355.8 95.6233C354.865 95.9037 353.909 96.0439 352.932 96.0439C351.062 96.0439 349.497 95.6009 348.235 94.7119C346.976 93.8244 346.348 92.4238 346.348 90.5118C346.348 89.4841 346.559 88.5616 346.979 87.7458C347.4 86.9268 347.97 86.248 348.694 85.7127C349.416 85.1773 350.255 84.7694 351.211 84.489C352.171 84.2086 353.163 84.0684 354.188 84.0684C356.01 84.0684 357.55 84.5129 358.808 85.4004C360.07 86.2847 360.701 87.6613 360.701 89.5303Z" fill="black" fill-opacity="0.4"/>
<path d="M361.953 98.7109H376.797L379.671 119.303L389.894 98.7109H397.313L381.417 128.825H366.784L361.953 98.7109Z" fill="black" fill-opacity="0.4"/>
<path d="M410.751 114.734C410.563 115.764 410.434 116.745 410.362 117.679C410.294 118.614 410.26 119.454 410.26 120.196C410.26 120.617 410.282 121.085 410.33 121.598C410.376 122.113 410.48 122.593 410.642 123.039C410.808 123.482 411.041 123.855 411.344 124.16C411.649 124.463 412.083 124.613 412.644 124.613C413.064 124.613 413.542 124.473 414.078 124.192C414.616 123.912 415.155 123.515 415.69 123.001C416.226 122.487 416.737 121.858 417.226 121.114C417.718 120.367 418.106 119.525 418.386 118.59H429.871L428.048 126.079C427.118 126.688 426.044 127.201 424.83 127.621C423.614 128.042 422.328 128.383 420.974 128.641C419.623 128.896 418.246 129.081 416.844 129.195C415.445 129.313 414.116 129.374 412.854 129.374C410.521 129.374 408.35 129.164 406.34 128.743C404.334 128.322 402.583 127.6 401.089 126.576C399.593 125.548 398.414 124.183 397.552 122.478C396.688 120.775 396.258 118.66 396.258 116.136C396.258 113.852 396.618 111.611 397.341 109.419C398.063 107.223 399.276 105.273 400.98 103.568C402.689 101.865 404.977 100.499 407.845 99.4701C410.716 98.4424 414.301 97.9277 418.596 97.9277C423.265 97.9277 426.78 98.6527 429.138 100.101C431.496 101.551 432.675 103.815 432.675 106.895C432.675 108.154 432.487 109.519 432.114 110.993C431.74 112.464 431.179 113.711 430.432 114.734H410.751ZM420.069 106.404C420.069 104.956 419.834 103.974 419.368 103.46C418.899 102.947 418.338 102.689 417.685 102.689C416.936 102.689 416.248 102.936 415.62 103.428C414.991 103.917 414.419 104.572 413.906 105.391C413.391 106.207 412.924 107.14 412.503 108.189C412.083 109.239 411.732 110.348 411.452 111.516H419.438C419.53 110.955 419.624 110.372 419.718 109.763C419.811 109.25 419.892 108.691 419.96 108.087C420.032 107.48 420.069 106.919 420.069 106.404Z" fill="black" fill-opacity="0.4"/>
<path d="M439.451 98.6989H450.866L451.918 103.951H452.409C453.482 102.273 454.859 100.85 456.538 99.6804C458.221 98.5125 460.439 97.9277 463.192 97.9277C463.379 97.9277 463.67 97.9405 464.065 97.966C464.464 97.9883 464.908 98.0584 465.397 98.1763C465.885 98.291 466.398 98.4551 466.933 98.667C467.472 98.8758 467.999 99.1674 468.514 99.5402L465.436 113.969H457.8C457.706 111.073 457.45 109.052 457.029 107.908C456.609 106.766 455.93 106.194 454.996 106.194C454.528 106.194 454.027 106.301 453.492 106.513C452.957 106.721 452.409 107.175 451.848 107.877L447.367 128.813H433.078L439.451 98.6989Z" fill="black" fill-opacity="0.4"/>
<path d="M489.088 107.526C489.134 107.293 489.18 107.059 489.228 106.825C489.274 106.592 489.298 106.334 489.298 106.054C489.298 105.212 489.145 104.432 488.839 103.708C488.536 102.982 487.944 102.619 487.061 102.619C486.266 102.619 485.471 102.959 484.677 103.638C483.882 104.314 483.485 105.212 483.485 106.334C483.485 107.083 483.683 107.677 484.078 108.119C484.476 108.562 485.004 108.922 485.659 109.202C486.312 109.483 487.048 109.717 487.864 109.903C488.68 110.091 489.484 110.278 490.279 110.464C491.401 110.745 492.462 111.086 493.466 111.484C494.468 111.879 495.367 112.405 496.162 113.058C496.955 113.713 497.586 114.518 498.055 115.474C498.522 116.43 498.756 117.609 498.756 119.011C498.756 120.971 498.299 122.615 497.386 123.944C496.476 125.274 495.216 126.35 493.606 127.169C491.995 127.984 490.104 128.556 487.934 128.883C485.762 129.21 483.441 129.374 480.968 129.374C477.185 129.374 474.056 129.093 471.58 128.533C469.107 127.972 467.38 127.435 466.398 126.92L467.871 119.922H477.322C477.275 120.152 477.252 120.373 477.252 120.585C477.252 120.794 477.252 121.015 477.252 121.248C477.252 122.323 477.496 123.177 477.985 123.81C478.478 124.439 479.332 124.753 480.547 124.753C481.898 124.753 482.864 124.369 483.447 123.6C484.034 122.827 484.327 122.113 484.327 121.458C484.327 120.805 484.08 120.233 483.587 119.744C483.098 119.256 482.48 118.837 481.733 118.488C480.989 118.136 480.16 117.832 479.247 117.577C478.337 117.319 477.463 117.072 476.621 116.837C476.017 116.697 475.329 116.465 474.556 116.136C473.787 115.81 473.052 115.345 472.351 114.741C471.65 114.134 471.065 113.351 470.598 112.395C470.135 111.436 469.904 110.231 469.904 108.782C469.904 106.729 470.404 105.015 471.408 103.638C472.41 102.262 473.717 101.153 475.328 100.311C476.937 99.4701 478.758 98.863 480.789 98.4886C482.819 98.1157 484.864 97.9277 486.921 97.9277C489.486 97.9277 491.913 98.162 494.199 98.6288C496.489 99.0972 498.356 99.7043 499.801 100.452L498.195 107.526H489.088Z" fill="black" fill-opacity="0.4"/>
<path d="M515.2 128.818H500.981L507.355 98.7035H521.714L515.2 128.818ZM523.53 89.5323C523.53 90.603 523.307 91.5367 522.861 92.3302C522.418 93.1253 521.837 93.8024 521.115 94.3633C520.392 94.9241 519.563 95.3448 518.629 95.6252C517.694 95.9056 516.738 96.0458 515.761 96.0458C513.891 96.0458 512.326 95.6029 511.064 94.7138C509.805 93.8263 509.178 92.4258 509.178 90.5138C509.178 89.4861 509.388 88.5635 509.809 87.7477C510.229 86.9288 510.8 86.25 511.523 85.7146C512.245 85.1793 513.084 84.7714 514.04 84.491C515 84.2105 515.992 84.0703 517.017 84.0703C518.84 84.0703 520.379 84.5149 521.637 85.4023C522.899 86.2866 523.53 87.6633 523.53 89.5323Z" fill="black" fill-opacity="0.4"/>
<path d="M525.414 98.7136C527.142 98.3408 528.659 97.9201 529.964 97.4517C531.272 96.9848 532.475 96.4033 533.571 95.7054C534.671 95.0043 535.723 94.1407 536.726 93.1114C537.729 92.0837 538.814 90.8234 539.983 89.332H547.198L545.165 98.7136H550.627L549.715 103.404H544.183L541.315 117.063C541.081 118.138 540.894 119.096 540.754 119.937C540.614 120.775 540.544 121.427 540.544 121.894C540.544 122.829 540.882 123.414 541.557 123.646C542.236 123.88 543.509 123.997 545.375 123.997L544.323 128.828C543.995 128.92 543.495 128.99 542.819 129.038C542.144 129.084 541.395 129.142 540.576 129.21C539.76 129.282 538.92 129.328 538.058 129.35C537.195 129.376 536.436 129.389 535.783 129.389C534.614 129.389 533.47 129.306 532.348 129.14C531.229 128.977 530.227 128.654 529.34 128.165C528.451 127.673 527.737 126.96 527.198 126.03C526.663 125.096 526.395 123.834 526.395 122.244C526.395 121.683 526.429 120.985 526.497 120.147C526.569 119.306 526.722 118.372 526.956 117.343L529.9 103.404H524.438L525.414 98.7136Z" fill="black" fill-opacity="0.4"/>
<path d="M567.198 98.7109L569.301 119.303L580.365 98.7109H587.784L570.907 128.825C569.228 131.765 567.524 134.027 565.795 135.613C564.07 137.201 562.191 138.369 560.161 139.118C558.13 139.865 555.888 140.297 553.438 140.412C550.985 140.53 548.197 140.59 545.069 140.59L546.121 135.759C547.66 135.759 549.094 135.735 550.423 135.689C551.757 135.641 552.819 135.501 553.61 135.269C554.684 134.988 555.455 134.485 555.923 133.758C556.39 133.035 556.624 131.975 556.624 130.578C556.624 129.642 556.541 128.57 556.376 127.359C556.213 126.145 556.039 124.859 555.853 123.503L552.424 98.7109H567.198Z" fill="black" fill-opacity="0.4"/>
<path d="M642.112 94.516C642.112 95.872 641.911 97.0877 641.512 98.1616C641.117 99.2323 640.569 100.188 639.868 101.03C639.167 101.871 638.348 102.62 637.414 103.273C636.484 103.923 635.458 104.529 634.336 105.089C634.849 105.277 635.455 105.571 636.153 105.969C636.854 106.364 637.531 106.912 638.186 107.613C638.839 108.311 639.387 109.21 639.83 110.309C640.276 111.405 640.499 112.747 640.499 114.331C640.499 116.434 640.055 118.375 639.167 120.15C638.278 121.921 636.959 123.449 635.209 124.732C633.458 126.016 631.31 127.02 628.766 127.747C626.224 128.47 623.294 128.83 619.977 128.83H599.181L608.632 84.3633H627.051C628.874 84.3633 630.684 84.4907 632.481 84.7457C634.279 85.0006 635.888 85.5025 637.312 86.2498C638.735 86.9987 639.89 88.0375 640.78 89.3664C641.667 90.6968 642.112 92.4128 642.112 94.516ZM623.062 102.986C624.089 102.986 624.964 102.685 625.687 102.081C626.409 101.474 627.004 100.716 627.472 99.8059C627.939 98.8929 628.289 97.9114 628.524 96.8614C628.756 95.813 628.874 94.8666 628.874 94.0253C628.874 92.671 628.557 91.5142 627.924 90.5582C627.295 89.6022 626.306 89.1242 624.955 89.1242H622.851L619.837 102.986H623.062ZM618.02 124.42C619.418 124.42 620.584 124.023 621.519 123.228C622.453 122.435 623.224 121.455 623.833 120.29C624.44 119.122 624.872 117.897 625.127 116.612C625.382 115.325 625.509 114.194 625.509 113.215C625.509 111.581 625.171 110.284 624.496 109.328C623.82 108.372 622.733 107.894 621.239 107.894H618.651L615.216 124.42H618.02Z" fill="black" fill-opacity="0.4"/>
<path d="M668.841 98.7109H683.124L676.681 128.825H665.336L664.074 124.345H663.654C662.443 125.79 660.798 126.993 658.721 127.952C656.643 128.908 654.552 129.386 652.449 129.386C649.648 129.386 647.454 128.675 645.866 127.251C644.28 125.828 643.488 123.972 643.488 121.681C643.488 120.517 643.686 119.059 644.081 117.308C644.479 115.554 644.843 113.908 645.171 112.369L648.109 98.7109H662.328L658.823 115.097C658.729 115.471 658.635 115.916 658.542 116.429C658.448 116.944 658.354 117.447 658.262 117.939C658.168 118.429 658.085 118.895 658.013 119.341C657.945 119.784 657.911 120.143 657.911 120.419C657.911 121.12 658.061 121.717 658.364 122.21C658.67 122.699 659.219 122.942 660.014 122.942C660.856 122.942 661.648 122.662 662.392 122.101C663.139 121.54 663.724 121.003 664.144 120.489L668.841 98.7109Z" fill="black" fill-opacity="0.4"/>
<path d="M705.163 107.526C705.209 107.293 705.255 107.059 705.303 106.825C705.349 106.592 705.373 106.334 705.373 106.054C705.373 105.212 705.22 104.432 704.914 103.708C704.611 102.982 704.019 102.619 703.136 102.619C702.341 102.619 701.546 102.959 700.752 103.638C699.957 104.314 699.561 105.212 699.561 106.334C699.561 107.083 699.758 107.677 700.153 108.119C700.552 108.562 701.079 108.922 701.734 109.202C702.387 109.483 703.123 109.717 703.939 109.903C704.755 110.091 705.56 110.278 706.355 110.464C707.476 110.745 708.537 111.086 709.541 111.484C710.543 111.879 711.442 112.405 712.237 113.058C713.031 113.713 713.662 114.518 714.13 115.474C714.597 116.43 714.831 117.609 714.831 119.011C714.831 120.971 714.374 122.615 713.461 123.944C712.551 125.274 711.291 126.35 709.681 127.169C708.071 127.984 706.179 128.556 704.009 128.883C701.837 129.21 699.516 129.374 697.043 129.374C693.261 129.374 690.131 129.093 687.655 128.533C685.182 127.972 683.455 127.435 682.474 126.92L683.946 119.922H693.398C693.35 120.152 693.327 120.373 693.327 120.585C693.327 120.794 693.327 121.015 693.327 121.248C693.327 122.323 693.571 123.177 694.06 123.81C694.553 124.439 695.407 124.753 696.622 124.753C697.974 124.753 698.939 124.369 699.522 123.6C700.109 122.827 700.402 122.113 700.402 121.458C700.402 120.805 700.155 120.233 699.663 119.744C699.173 119.256 698.555 118.837 697.808 118.488C697.064 118.136 696.235 117.832 695.322 117.577C694.413 117.319 693.538 117.072 692.696 116.837C692.093 116.697 691.404 116.465 690.632 116.136C689.862 115.81 689.127 115.345 688.426 114.741C687.725 114.134 687.141 113.351 686.674 112.395C686.21 111.436 685.979 110.231 685.979 108.782C685.979 106.729 686.479 105.015 687.483 103.638C688.485 102.262 689.792 101.153 691.403 100.311C693.012 99.4701 694.833 98.863 696.865 98.4886C698.895 98.1157 700.939 97.9277 702.996 97.9277C705.561 97.9277 707.988 98.162 710.274 98.6288C712.564 99.0972 714.431 99.7043 715.876 100.452L714.27 107.526H705.163Z" fill="black" fill-opacity="0.4"/>
<path d="M269.323 109.855C269.089 110.879 268.902 111.765 268.762 112.513C268.622 113.262 268.552 113.963 268.552 114.616C268.552 116.247 269.122 117.554 270.266 118.535C271.409 119.517 273.102 120.008 275.346 120.008C276.977 120.008 278.317 119.727 279.367 119.166C280.42 118.606 281.286 117.86 281.961 116.929C282.637 115.996 283.172 114.92 283.567 113.704C283.966 112.49 284.307 111.206 284.587 109.855L290.54 81.2832H296.913L290.82 109.995C290.352 112.235 289.675 114.335 288.787 116.298C287.903 118.258 286.633 119.985 284.976 121.48C283.319 122.971 281.18 124.15 278.564 125.017C275.951 125.879 272.707 126.311 268.832 126.311C263.461 126.311 259.492 125.436 256.927 123.685C254.36 121.936 253.077 119.24 253.077 115.597C253.077 113.963 253.284 111.885 253.702 109.364C254.122 106.84 254.659 104.109 255.314 101.168L259.584 81.2832H275.486L269.323 109.855Z" fill="#263A97"/>
<path d="M313.494 100.093C314.476 99.1629 315.572 98.3009 316.783 97.5059C317.857 96.8526 319.117 96.2439 320.562 95.6831C322.01 95.1222 323.623 94.8418 325.399 94.8418C327.825 94.8418 329.831 95.4632 331.416 96.7028C333.004 97.9392 333.8 99.6314 333.8 101.776C333.8 102.385 333.729 103.121 333.589 103.988C333.449 104.851 333.285 105.75 333.098 106.683C332.91 107.614 332.713 108.56 332.506 109.52C332.297 110.476 332.123 111.326 331.983 112.069L329.039 125.727H314.826L318.676 107.448C318.768 106.841 318.886 106.223 319.026 105.594C319.166 104.966 319.236 104.394 319.236 103.879C319.236 103.178 319.06 102.608 318.707 102.165C318.359 101.719 317.834 101.496 317.133 101.496C316.292 101.496 315.486 101.8 314.718 102.407C313.948 103.016 313.354 103.529 312.933 103.949L308.313 125.727H294.023L300.397 95.613H311.811L313.073 100.093H313.494Z" fill="#263A97"/>
<path d="M349.281 125.736H335.062L341.436 95.6215H355.795L349.281 125.736ZM357.611 86.4502C357.611 87.521 357.388 88.4547 356.942 89.2482C356.499 90.0432 355.918 90.7204 355.196 91.2813C354.473 91.8421 353.644 92.2627 352.71 92.5432C351.775 92.8236 350.819 92.9638 349.842 92.9638C347.972 92.9638 346.407 92.5209 345.145 91.6318C343.886 90.7443 343.259 89.3438 343.259 87.4317C343.259 86.404 343.469 85.4815 343.89 84.6657C344.31 83.8467 344.881 83.168 345.604 82.6326C346.326 82.0972 347.166 81.6894 348.122 81.4089C349.081 81.1285 350.073 80.9883 351.098 80.9883C352.921 80.9883 354.46 81.4328 355.719 82.3203C356.98 83.2046 357.611 84.5813 357.611 86.4502Z" fill="#263A97"/>
<path d="M358.863 95.5977H373.707L376.581 116.19L386.804 95.5977H394.223L378.328 125.712H363.694L358.863 95.5977Z" fill="#263A97"/>
<path d="M407.655 111.648C407.467 112.678 407.338 113.659 407.266 114.593C407.198 115.528 407.164 116.368 407.164 117.11C407.164 117.531 407.187 117.999 407.234 118.512C407.281 119.027 407.384 119.507 407.547 119.953C407.712 120.396 407.945 120.769 408.248 121.075C408.554 121.377 408.987 121.527 409.548 121.527C409.969 121.527 410.447 121.387 410.982 121.106C411.521 120.826 412.059 120.429 412.594 119.915C413.13 119.402 413.641 118.772 414.13 118.028C414.623 117.281 415.01 116.44 415.29 115.504H426.775L424.952 122.993C424.022 123.602 422.948 124.115 421.734 124.535C420.518 124.956 419.232 125.297 417.878 125.555C416.527 125.81 415.15 125.995 413.748 126.109C412.349 126.227 411.02 126.288 409.758 126.288C407.426 126.288 405.254 126.078 403.245 125.657C401.239 125.236 399.488 124.515 397.993 123.49C396.497 122.462 395.318 121.097 394.456 119.392C393.592 117.689 393.162 115.574 393.162 113.05C393.162 110.766 393.522 108.525 394.246 106.333C394.967 104.137 396.18 102.187 397.885 100.482C399.593 98.7789 401.881 97.4134 404.749 96.3841C407.62 95.3564 411.205 94.8418 415.501 94.8418C420.169 94.8418 423.684 95.5668 426.042 97.0151C428.4 98.465 429.579 100.729 429.579 103.809C429.579 105.068 429.391 106.433 429.019 107.907C428.644 109.378 428.083 110.625 427.336 111.648H407.655ZM416.973 103.318C416.973 101.87 416.739 100.889 416.272 100.374C415.803 99.8608 415.243 99.6027 414.589 99.6027C413.84 99.6027 413.152 99.8497 412.524 100.342C411.895 100.831 411.323 101.486 410.81 102.305C410.295 103.121 409.828 104.054 409.408 105.103C408.987 106.153 408.637 107.262 408.356 108.43H416.342C416.434 107.869 416.528 107.286 416.622 106.677C416.715 106.164 416.796 105.605 416.865 105.001C416.936 104.394 416.973 103.833 416.973 103.318Z" fill="#263A97"/>
<path d="M436.352 95.613H447.767L448.818 100.865H449.309C450.383 99.1868 451.759 97.764 453.439 96.5945C455.121 95.4266 457.339 94.8418 460.093 94.8418C460.279 94.8418 460.571 94.8545 460.966 94.88C461.364 94.9023 461.809 94.9725 462.298 95.0904C462.785 95.2051 463.298 95.3692 463.834 95.5811C464.372 95.7898 464.9 96.0814 465.414 96.4543L462.336 110.884H454.701C454.607 107.987 454.35 105.966 453.93 104.822C453.509 103.68 452.83 103.108 451.896 103.108C451.428 103.108 450.928 103.215 450.392 103.427C449.857 103.635 449.309 104.09 448.748 104.791L444.268 125.727H429.979L436.352 95.613Z" fill="#263A97"/>
<path d="M485.988 104.44C486.034 104.207 486.08 103.973 486.128 103.739C486.174 103.506 486.198 103.248 486.198 102.968C486.198 102.127 486.045 101.346 485.739 100.622C485.437 99.8959 484.844 99.5326 483.961 99.5326C483.166 99.5326 482.371 99.8736 481.578 100.552C480.783 101.228 480.386 102.127 480.386 103.248C480.386 103.997 480.583 104.591 480.979 105.033C481.377 105.476 481.904 105.836 482.559 106.116C483.212 106.397 483.949 106.631 484.764 106.817C485.58 107.005 486.385 107.192 487.18 107.378C488.302 107.659 489.363 108 490.366 108.398C491.369 108.793 492.267 109.319 493.062 109.972C493.856 110.627 494.487 111.432 494.955 112.388C495.422 113.344 495.656 114.523 495.656 115.925C495.656 117.885 495.199 119.529 494.286 120.858C493.376 122.188 492.116 123.264 490.507 124.083C488.896 124.899 487.005 125.471 484.834 125.797C482.663 126.124 480.341 126.288 477.868 126.288C474.086 126.288 470.956 126.008 468.48 125.447C466.008 124.886 464.28 124.349 463.299 123.834L464.771 116.836H474.223C474.175 117.066 474.153 117.287 474.153 117.499C474.153 117.708 474.153 117.929 474.153 118.162C474.153 119.237 474.396 120.091 474.886 120.724C475.378 121.353 476.232 121.667 477.448 121.667C478.799 121.667 479.764 121.283 480.348 120.514C480.934 119.741 481.227 119.027 481.227 118.372C481.227 117.719 480.98 117.147 480.488 116.658C479.999 116.17 479.38 115.751 478.633 115.402C477.889 115.05 477.06 114.746 476.148 114.491C475.238 114.233 474.363 113.986 473.522 113.752C472.918 113.611 472.229 113.379 471.457 113.05C470.687 112.724 469.953 112.259 469.252 111.655C468.55 111.048 467.966 110.265 467.499 109.309C467.035 108.35 466.804 107.146 466.804 105.696C466.804 103.643 467.304 101.929 468.308 100.552C469.31 99.1757 470.617 98.0667 472.228 97.2254C473.837 96.3841 475.658 95.7771 477.69 95.4027C479.72 95.0298 481.764 94.8418 483.821 94.8418C486.386 94.8418 488.813 95.076 491.099 95.5429C493.389 96.0113 495.256 96.6184 496.702 97.3656L495.096 104.44H485.988Z" fill="#263A97"/>
<path d="M512.091 125.736H497.872L504.245 95.6215H518.605L512.091 125.736ZM520.421 86.4502C520.421 87.521 520.198 88.4547 519.752 89.2482C519.309 90.0432 518.727 90.7204 518.006 91.2813C517.282 91.8421 516.454 92.2627 515.52 92.5432C514.585 92.8236 513.629 92.9638 512.652 92.9638C510.781 92.9638 509.217 92.5209 507.955 91.6318C506.696 90.7443 506.068 89.3438 506.068 87.4317C506.068 86.404 506.279 85.4815 506.699 84.6657C507.12 83.8467 507.69 83.168 508.414 82.6326C509.135 82.0972 509.975 81.6894 510.931 81.4089C511.89 81.1285 512.883 80.9883 513.907 80.9883C515.73 80.9883 517.269 81.4328 518.528 82.3203C519.79 83.2046 520.421 84.5813 520.421 86.4502Z" fill="#263A97"/>
<path d="M522.285 95.6003C524.013 95.2275 525.53 94.8068 526.835 94.3384C528.143 93.8716 529.346 93.29 530.443 92.5921C531.542 91.891 532.594 91.0274 533.597 89.9982C534.6 88.9704 535.685 87.7101 536.854 86.2188H544.069L542.036 95.6003H547.498L546.586 100.291H541.054L538.186 113.949C537.952 115.025 537.766 115.982 537.625 116.824C537.485 117.662 537.415 118.313 537.415 118.78C537.415 119.716 537.753 120.3 538.428 120.533C539.107 120.767 540.38 120.883 542.246 120.883L541.194 125.714C540.866 125.807 540.366 125.877 539.69 125.925C539.015 125.971 538.266 126.028 537.447 126.097C536.631 126.169 535.791 126.215 534.929 126.237C534.066 126.263 533.307 126.275 532.654 126.275C531.485 126.275 530.341 126.192 529.219 126.027C528.1 125.864 527.098 125.541 526.211 125.052C525.322 124.559 524.608 123.847 524.069 122.917C523.534 121.983 523.266 120.721 523.266 119.131C523.266 118.57 523.3 117.872 523.368 117.034C523.44 116.193 523.593 115.259 523.827 114.23L526.772 100.291H521.31L522.285 95.6003Z" fill="#263A97"/>
<path d="M564.114 95.6055L566.217 116.198L577.281 95.6055H584.7L567.823 125.72C566.144 128.659 564.44 130.922 562.712 132.507C560.986 134.096 559.107 135.264 557.077 136.013C555.046 136.76 552.804 137.192 550.354 137.306C547.901 137.424 545.113 137.485 541.985 137.485L543.037 132.654C544.576 132.654 546.01 132.63 547.339 132.584C548.673 132.536 549.735 132.396 550.526 132.163C551.6 131.883 552.371 131.379 552.839 130.653C553.306 129.929 553.54 128.87 553.54 127.472C553.54 126.537 553.457 125.465 553.292 124.254C553.129 123.04 552.955 121.754 552.769 120.398L549.34 95.6055H564.114Z" fill="#263A97"/>
<path d="M639.029 91.436C639.029 92.7919 638.828 94.0076 638.429 95.0815C638.034 96.1522 637.486 97.1082 636.785 97.9495C636.084 98.7908 635.265 99.5397 634.331 100.193C633.401 100.843 632.375 101.449 631.253 102.009C631.766 102.197 632.372 102.491 633.069 102.889C633.771 103.284 634.448 103.832 635.103 104.533C635.756 105.231 636.304 106.13 636.747 107.229C637.193 108.325 637.416 109.667 637.416 111.251C637.416 113.354 636.972 115.295 636.084 117.07C635.195 118.841 633.876 120.369 632.126 121.652C630.375 122.936 628.227 123.94 625.683 124.667C623.141 125.39 620.211 125.75 616.894 125.75H596.098L605.549 81.2832H623.968C625.791 81.2832 627.601 81.4107 629.398 81.6656C631.196 81.9205 632.805 82.4224 634.229 83.1697C635.652 83.9186 636.807 84.9574 637.697 86.2863C638.584 87.6167 639.029 89.3328 639.029 91.436ZM619.979 99.9062C621.006 99.9062 621.881 99.605 622.604 99.0011C623.326 98.3941 623.921 97.6356 624.389 96.7258C624.856 95.8129 625.206 94.8314 625.441 93.7814C625.673 92.7329 625.791 91.7865 625.791 90.9452C625.791 89.5909 625.474 88.4341 624.841 87.4781C624.212 86.5221 623.223 86.0441 621.872 86.0441H619.768L616.754 99.9062H619.979ZM614.937 121.34C616.335 121.34 617.501 120.943 618.436 120.148C619.37 119.354 620.141 118.375 620.75 117.21C621.357 116.042 621.789 114.817 622.044 113.532C622.299 112.245 622.426 111.114 622.426 110.135C622.426 108.501 622.088 107.204 621.413 106.248C620.737 105.292 619.65 104.814 618.156 104.814H615.568L612.133 121.34H614.937Z" fill="#263A97"/>
<path d="M665.754 95.6055H680.036L673.593 125.72H662.248L660.986 121.239H660.566C659.355 122.684 657.71 123.887 655.633 124.846C653.555 125.802 651.465 126.28 649.361 126.28C646.56 126.28 644.366 125.57 642.778 124.145C641.192 122.723 640.4 120.866 640.4 118.575C640.4 117.412 640.598 115.954 640.993 114.203C641.391 112.449 641.755 110.803 642.083 109.264L645.021 95.6055H659.24L655.735 111.991C655.641 112.366 655.547 112.81 655.454 113.323C655.36 113.838 655.266 114.342 655.174 114.834C655.08 115.323 654.997 115.79 654.925 116.236C654.857 116.679 654.823 117.037 654.823 117.313C654.823 118.014 654.973 118.612 655.276 119.104C655.582 119.593 656.131 119.837 656.927 119.837C657.768 119.837 658.56 119.557 659.304 118.996C660.051 118.435 660.636 117.898 661.056 117.383L665.754 95.6055Z" fill="#263A97"/>
<path d="M702.085 104.44C702.131 104.207 702.177 103.973 702.225 103.739C702.271 103.506 702.295 103.248 702.295 102.968C702.295 102.127 702.142 101.346 701.836 100.622C701.533 99.8959 700.941 99.5326 700.058 99.5326C699.263 99.5326 698.468 99.8736 697.674 100.552C696.879 101.228 696.482 102.127 696.482 103.248C696.482 103.997 696.68 104.591 697.075 105.033C697.474 105.476 698.001 105.836 698.656 106.116C699.309 106.397 700.045 106.631 700.861 106.817C701.677 107.005 702.481 107.192 703.276 107.378C704.398 107.659 705.459 108 706.463 108.398C707.465 108.793 708.364 109.319 709.159 109.972C709.953 110.627 710.584 111.432 711.052 112.388C711.519 113.344 711.753 114.523 711.753 115.925C711.753 117.885 711.296 119.529 710.383 120.858C709.473 122.188 708.213 123.264 706.603 124.083C704.993 124.899 703.101 125.471 700.931 125.797C698.759 126.124 696.438 126.288 693.965 126.288C690.182 126.288 687.053 126.008 684.577 125.447C682.104 124.886 680.377 124.349 679.396 123.834L680.868 116.836H690.319C690.272 117.066 690.249 117.287 690.249 117.499C690.249 117.708 690.249 117.929 690.249 118.162C690.249 119.237 690.493 120.091 690.982 120.724C691.475 121.353 692.329 121.667 693.544 121.667C694.896 121.667 695.861 121.283 696.444 120.514C697.031 119.741 697.324 119.027 697.324 118.372C697.324 117.719 697.077 117.147 696.584 116.658C696.095 116.17 695.477 115.751 694.73 115.402C693.986 115.05 693.157 114.746 692.244 114.491C691.334 114.233 690.46 113.986 689.618 113.752C689.014 113.611 688.326 113.379 687.553 113.05C686.784 112.724 686.049 112.259 685.348 111.655C684.647 111.048 684.062 110.265 683.596 109.309C683.132 108.35 682.901 107.146 682.901 105.696C682.901 103.643 683.401 101.929 684.405 100.552C685.407 99.1757 686.714 98.0667 688.325 97.2254C689.934 96.3841 691.755 95.7771 693.787 95.4027C695.816 95.0298 697.861 94.8418 699.918 94.8418C702.483 94.8418 704.91 95.076 707.196 95.5429C709.486 96.0113 711.353 96.6184 712.798 97.3656L711.192 104.44H702.085Z" fill="#263A97"/>
</svg>
