<svg width="21" height="22" viewBox="0 0 21 22" fill="none" xmlns="http://www.w3.org/2000/svg">
<path d="M10.1924 12.8337C9.86086 12.8337 9.54292 12.702 9.3085 12.4676C9.07408 12.2332 8.94238 11.9153 8.94238 11.5837V1.58374C8.94238 1.25222 9.07408 0.934277 9.3085 0.699857C9.54292 0.465436 9.86086 0.33374 10.1924 0.33374C10.5239 0.33374 10.8418 0.465436 11.0763 0.699857C11.3107 0.934277 11.4424 1.25222 11.4424 1.58374V11.5837C11.4424 11.9153 11.3107 12.2332 11.0763 12.4676C10.8418 12.702 10.5239 12.8337 10.1924 12.8337Z" fill="#FF2B2B"/>
<path d="M10.1924 21.585C8.06493 21.5831 5.99347 20.9028 4.27909 19.643C2.56471 18.3832 1.29674 16.6095 0.659449 14.5797C0.0221555 12.5499 0.0487467 10.3697 0.735359 8.35605C1.42197 6.3424 2.73283 4.60016 4.47742 3.38253C4.61148 3.2786 4.76529 3.20305 4.92948 3.16048C5.09367 3.1179 5.26481 3.10918 5.43248 3.13486C5.60014 3.16053 5.76083 3.22007 5.90476 3.30983C6.04868 3.39959 6.17283 3.51771 6.26964 3.65699C6.36646 3.79627 6.43391 3.95379 6.4679 4.11997C6.50189 4.28615 6.5017 4.45752 6.46735 4.62362C6.433 4.78973 6.36519 4.9471 6.26807 5.08617C6.17095 5.22523 6.04654 5.34308 5.90242 5.43253C4.59265 6.3453 3.6083 7.6522 3.09261 9.16307C2.57692 10.6739 2.5568 12.31 3.03516 13.8331C3.51353 15.3562 4.46543 16.6869 5.75236 17.6316C7.03929 18.5763 8.59409 19.0857 10.1905 19.0857C11.787 19.0857 13.3418 18.5763 14.6287 17.6316C15.9157 16.6869 16.8676 15.3562 17.3459 13.8331C17.8243 12.31 17.8042 10.6739 17.2885 9.16307C16.7728 7.6522 15.7885 6.3453 14.4787 5.43253C14.2255 5.2363 14.0574 4.9504 14.0089 4.63382C13.9604 4.31723 14.0353 3.99412 14.2181 3.73113C14.4009 3.46815 14.6777 3.28537 14.9913 3.2205C15.305 3.15564 15.6315 3.21363 15.9037 3.38253C17.6481 4.60004 18.9589 6.34205 19.6455 8.35546C20.3322 10.3689 20.359 12.5488 19.722 14.5785C19.085 16.6082 17.8175 18.3819 16.1035 19.6419C14.3895 20.9019 12.3185 21.5826 10.1912 21.585H10.1924Z" fill="#FF2B2B"/>
</svg>
