<svg width="33" height="33" viewBox="0 0 33 33" fill="none" xmlns="http://www.w3.org/2000/svg">
<path d="M16.5 33C25.6127 33 33 25.6127 33 16.5C33 7.3873 25.6127 0 16.5 0C7.3873 0 0 7.3873 0 16.5C0 25.6127 7.3873 33 16.5 33Z" fill="white"/>
<path d="M21.334 10.6992C21.334 8.03376 19.1655 5.86523 16.5 5.86523C13.8345 5.86523 11.666 8.03376 11.666 10.6992C11.666 13.3647 13.8345 15.5332 16.5 15.5332C19.1655 15.5332 21.334 13.3647 21.334 10.6992ZM16.5 15.5332C11.7022 15.5332 7.79883 19.4365 7.79883 24.2344V25.1405C7.79883 25.4153 7.91575 25.6771 8.12045 25.8605C10.4754 27.9707 13.4514 29.1328 16.5 29.1328C19.5487 29.1328 22.5246 27.9707 24.8796 25.8605C24.9808 25.7698 25.0617 25.6588 25.1171 25.5347C25.1725 25.4107 25.2012 25.2763 25.2012 25.1405V24.2344C25.2012 19.4365 21.2978 15.5332 16.5 15.5332Z" fill="url(#paint0_linear_1_32213)"/>
<defs>
<linearGradient id="paint0_linear_1_32213" x1="16.3358" y1="3.72076" x2="23.8881" y2="28.1964" gradientUnits="userSpaceOnUse">
<stop stop-color="#2473B3"/>
<stop offset="1" stop-color="#39A7FF"/>
</linearGradient>
</defs>
</svg>
