<svg width="22" height="22" viewBox="0 0 22 22" fill="none" xmlns="http://www.w3.org/2000/svg">
<g clip-path="url(#clip0_1_29196)">
<path d="M10.9031 15.2908C8.58371 15.2846 6.70182 13.3926 6.70802 11.0733C6.71422 8.75388 8.6062 6.87203 10.9255 6.87823C13.2449 6.88443 15.1268 8.77637 15.1206 11.0958C15.1144 13.4151 13.2224 15.297 10.9031 15.2908ZM10.9233 7.71949C9.06782 7.71453 7.55424 9.22004 7.54928 11.0755C7.54432 12.931 9.04983 14.4446 10.9053 14.4495C12.7608 14.4545 14.2744 12.949 14.2793 11.0935C14.2843 9.23803 12.7788 7.72445 10.9233 7.71949Z" fill="#263238"/>
<path d="M20.9936 17L0.80344 16.946C0.571127 16.9454 0.383316 16.7566 0.383937 16.5243L0.413172 5.58794C0.413793 5.35567 0.602611 5.16782 0.834924 5.16844L21.025 5.22241C21.2573 5.22303 21.4452 5.41189 21.4445 5.64416L21.4153 16.5805C21.4147 16.8128 21.2258 17.0006 20.9936 17ZM20.583 13.2405C19.0628 13.4269 17.8526 14.6307 17.658 16.1498L20.5752 16.1576L20.583 13.2405ZM4.14349 16.1137C3.95705 14.5936 2.75321 13.3833 1.23411 13.1887L1.22632 16.1059L4.14349 16.1137ZM1.2455 8.928C2.76561 8.7416 3.97592 7.53775 4.17048 6.01862L1.2533 6.01082L1.2455 8.928ZM5.01809 6.02088C4.81484 8.0045 3.22791 9.58296 1.24324 9.7756L1.23638 12.3411C3.21999 12.5443 4.79846 14.1313 4.9911 16.1159L16.8104 16.1475C17.0137 14.1639 18.6006 12.5855 20.5852 12.3928L20.5921 9.82733C18.6085 9.62408 17.03 8.03715 16.8374 6.05248L5.01809 6.02088ZM17.685 6.05474C17.8714 7.5749 19.0752 8.78516 20.5944 8.97972L20.6022 6.06254L17.685 6.05474Z" fill="#263238"/>
</g>
<defs>
<clipPath id="clip0_1_29196">
<rect width="21.5362" height="21.5362" fill="white" transform="matrix(0.999996 0.00267317 0.00267317 -0.999996 0.117676 21.8237)"/>
</clipPath>
</defs>
</svg>
