<svg width="23" height="22" viewBox="0 0 23 22" fill="none" xmlns="http://www.w3.org/2000/svg">
<path d="M5.81967 21.2884H22.2262C22.4322 21.2884 22.6008 21.1236 22.6008 20.9137C22.6008 20.7077 22.4322 20.5391 22.2262 20.5391H21.3981V9.28796H22.3685C22.5146 9.28796 22.6495 9.20179 22.7095 9.07066C22.7694 8.93578 22.7469 8.77842 22.6495 8.66977L19.3974 4.94187C19.2551 4.78077 18.9741 4.78077 18.8317 4.94187L15.5796 8.66977C15.4822 8.77842 15.4597 8.93578 15.5197 9.07066C15.5796 9.20179 15.7145 9.28796 15.8606 9.28796H16.831V20.5391H16.2615V11.5247C16.2615 11.3186 16.0929 11.15 15.8869 11.15H12.0653C11.8592 11.15 11.6906 11.3186 11.6906 11.5247V20.5391H11.1736V14.0274C11.1736 13.8214 11.005 13.6528 10.7989 13.6528H6.97738C6.76757 13.6528 6.60272 13.8214 6.60272 14.0274V20.5391H6.19434V16.6388C6.19434 16.429 6.02574 16.2642 5.81967 16.2642H1.99812C1.7883 16.2642 1.62345 16.429 1.62345 16.6388V20.5391H0.63809C0.432026 20.5391 0.263428 20.7077 0.263428 20.9137C0.263428 21.1236 0.432026 21.2884 0.63809 21.2884H5.81967ZM5.86838 11.8994C8.95935 11.8994 11.4733 9.38537 11.4733 6.29441C11.4733 3.20344 8.95935 0.689453 5.86838 0.689453C2.77741 0.689453 0.263428 3.20344 0.263428 6.29441C0.263428 9.38537 2.77741 11.8994 5.86838 11.8994ZM6.16062 6.66907H5.57614C5.19458 6.66907 4.82864 6.51749 4.55883 6.24768C4.28902 5.97787 4.13744 5.61193 4.13744 5.23036C4.13744 4.46231 4.7369 3.83287 5.49372 3.79166V3.19595C5.49372 2.98988 5.66232 2.82128 5.86838 2.82128C6.07819 2.82128 6.24304 2.98988 6.24304 3.19595V3.79166C6.99986 3.83287 7.60307 4.46231 7.60307 5.23036C7.60307 5.43643 7.43447 5.60503 7.22841 5.60503C7.0186 5.60503 6.85374 5.43643 6.85374 5.23036C6.85374 4.84821 6.54277 4.53724 6.16062 4.53724H5.57614C5.19774 4.53724 4.88677 4.84821 4.88677 5.23036C4.88677 5.60877 5.19774 5.91974 5.57614 5.91974H6.16062C6.9549 5.91974 7.60307 6.56791 7.60307 7.35845C7.60307 8.12651 6.99986 8.75594 6.24304 8.79715V9.39287C6.24304 9.60268 6.07819 9.76753 5.86838 9.76753C5.66232 9.76753 5.49372 9.60268 5.49372 9.39287V8.79715C5.12661 8.77609 4.78151 8.61526 4.52928 8.3477C4.27705 8.08014 4.13684 7.72616 4.13744 7.35845C4.13744 7.15238 4.30604 6.98379 4.5121 6.98379C4.71817 6.98379 4.88677 7.15238 4.88677 7.35845C4.88677 7.7406 5.19774 8.05158 5.57614 8.05158H6.16062C6.54277 8.05158 6.85374 7.7406 6.85374 7.35845C6.85374 6.98004 6.54277 6.66907 6.16062 6.66907Z" fill="white"/>
</svg>
