<svg width="19" height="30" viewBox="0 0 19 30" fill="none" xmlns="http://www.w3.org/2000/svg">
<path fill-rule="evenodd" clip-rule="evenodd" d="M16.7022 24.5534C15.2395 25.8282 13.3608 26.5224 10.965 26.6486V29.1603H8.75834V26.5981C5.56818 26.3078 2.68064 25.0078 0.171387 22.8116L2.71847 19.7825C4.66031 21.4738 6.66519 22.4835 8.75834 22.8116V16.0464C6.12299 15.4027 4.20637 14.5823 2.95805 13.5726C1.76016 12.5502 1.16752 11.0104 1.16752 9.02881C1.16752 7.00935 1.84843 5.36853 3.23545 4.08112C4.66031 2.81896 6.50127 2.11215 8.75834 1.99855V0.244141H10.965V2.02379C13.5247 2.22574 15.9331 3.09663 18.2027 4.6491L15.9457 7.86762C14.4199 6.76953 12.7555 6.07534 10.965 5.83553V12.3862H11.0785C13.739 13.0299 15.7187 13.8755 16.9796 14.9484C18.2027 16.0086 18.8332 17.5484 18.8332 19.5805C18.8332 21.6 18.1271 23.2913 16.7022 24.5534Z" fill="#3E3E3E"/>
<path d="M5.41895 9.42615C5.41895 10.1961 5.64591 10.8398 6.09985 11.2815C6.579 11.7359 7.47427 12.1777 8.77303 12.5942V6.56104C7.72645 6.63677 6.90685 6.96493 6.3016 7.49504C5.72157 7.9999 5.41895 8.64361 5.41895 9.42615Z" fill="#A8A8A8"/>
<path d="M10.9797 17.4788V23.7517C12.1145 23.6255 12.9845 23.31 13.6402 22.7546C14.2707 22.2497 14.5985 21.5556 14.5985 20.7351C14.5985 19.94 14.359 19.2837 13.8294 18.8167C13.3376 18.3118 12.3793 17.8827 10.9797 17.4788Z" fill="#A8A8A8"/>
</svg>
