<svg width="24" height="25" viewBox="0 0 24 25" fill="none" xmlns="http://www.w3.org/2000/svg">
<path d="M15.3323 16.802C15.3323 16.1029 15.3323 13.9749 17.3498 13.9749H21.3846V11.5516C21.3846 10.4381 20.4796 9.53224 19.3672 9.53224H2.01741C0.905012 9.53224 0 10.4381 0 11.5516V22.0524C0 23.1659 0.905012 24.0718 2.01741 24.0718H19.3672C20.4796 24.0718 21.3846 23.1659 21.3846 22.0524V19.6292H17.3498C15.3323 19.6292 15.3323 17.5011 15.3323 16.802ZM16.1393 8.72448V6.27618C16.1393 5.85897 15.9218 5.48054 15.5575 5.26406C15.374 5.15388 15.1649 5.09387 14.9509 5.09004C14.737 5.08621 14.5259 5.1387 14.3386 5.24225L7.36195 8.72448H16.1393Z" fill="white"/>
<path d="M18.5601 17.6095C19.0058 17.6095 19.3671 17.2479 19.3671 16.8018C19.3671 16.3557 19.0058 15.994 18.5601 15.994C18.1145 15.994 17.7532 16.3557 17.7532 16.8018C17.7532 17.2479 18.1145 17.6095 18.5601 17.6095Z" fill="white"/>
<path d="M12.5079 5.25329V3.53399C12.5124 3.28974 12.4457 3.04947 12.3159 2.84259C12.1862 2.63571 11.9989 2.4712 11.7772 2.36921C11.3487 2.17454 10.879 2.24643 10.5207 2.56105L3.49365 8.72421H5.55384L12.5079 5.25329ZM22.1915 14.7824H17.3497C16.623 14.7824 16.1392 15.1261 16.1392 16.8017C16.1392 18.4774 16.623 18.8211 17.3497 18.8211H22.1915C22.8588 18.8211 23.4019 18.2775 23.4019 17.6095V15.994C23.4019 15.326 22.8588 14.7824 22.1915 14.7824ZM18.5601 18.4173C17.67 18.4173 16.9462 17.6927 16.9462 16.8017C16.9462 15.9108 17.67 15.1862 18.5601 15.1862C19.4502 15.1862 20.174 15.9108 20.174 16.8017C20.174 17.6927 19.4502 18.4173 18.5601 18.4173ZM23.7162 2.98835L21.8602 0.489159C21.8042 0.413746 21.7313 0.352497 21.6475 0.310312C21.5636 0.268127 21.471 0.246177 21.3771 0.246216C21.2833 0.246255 21.1907 0.268283 21.1068 0.310538C21.023 0.352794 20.9502 0.414103 20.8943 0.489563L19.0495 2.97623C19.0087 3.01694 18.9808 3.06887 18.9695 3.12544C18.9582 3.18202 18.9639 3.24068 18.986 3.29399C19.008 3.3473 19.0454 3.39285 19.0933 3.42487C19.1413 3.45688 19.1977 3.47392 19.2553 3.47381H20.1664C20.2866 4.06431 20.2209 4.67761 19.9783 5.22917C19.7357 5.78072 19.3282 6.24338 18.8119 6.55337L18.5601 6.70482L20.174 7.91646L20.2451 7.8692C20.9679 7.38672 21.5605 6.73311 21.9704 5.96636C22.3804 5.19962 22.5949 4.34344 22.5949 3.47381H23.5153C23.5715 3.47384 23.6264 3.45718 23.6732 3.42594C23.7199 3.3947 23.7563 3.35028 23.7779 3.29831C23.7994 3.24634 23.805 3.18914 23.794 3.13397C23.7831 3.07879 23.756 3.02811 23.7162 2.98835Z" fill="white"/>
</svg>
