<svg width="31" height="32" viewBox="0 0 31 32" fill="none" xmlns="http://www.w3.org/2000/svg">
<path d="M0.00267323 20.0253V19.7226C0.05437 18.753 0.360347 17.8137 0.89024 16.998C1.77381 16.008 2.38123 14.8054 2.65213 13.5099C2.71836 12.5227 2.65213 11.5092 2.71836 10.5089C3.19526 5.70462 7.95103 2.3877 12.5081 2.3877H12.6406C17.2771 2.3877 21.9137 5.70462 22.417 10.5089C22.5098 11.4961 22.417 12.5227 22.4965 13.5099C22.7608 14.8077 23.3691 16.0119 24.2584 16.998C24.8113 17.8044 25.1278 18.7478 25.1726 19.7226V20.0253C25.1806 21.3385 24.7101 22.6103 23.8477 23.6055C22.7415 24.7855 21.2377 25.5208 19.6219 25.672C14.9034 26.2774 10.1261 26.2774 5.40756 25.672C3.8105 25.5084 2.32759 24.774 1.23467 23.6055C0.399398 22.6007 -0.0386077 21.3279 0.00267323 20.0253Z" fill="url(#paint0_linear_1_20380)"/>
<path d="M14.3099 27.6989C13.3694 27.6331 12.601 27.6989 11.8327 27.6989C11.0707 27.6858 10.3099 27.7653 9.5674 27.9359C8.93153 28.0806 8.24268 28.4229 8.24268 29.1468C8.3094 29.8464 8.68869 30.4794 9.27596 30.8711C10.4072 31.735 11.8328 32.1269 13.2501 31.9635C14.6278 31.862 15.8871 31.1518 16.6812 30.0287C17.1201 29.4596 17.02 28.6462 16.456 28.1991C15.7881 27.8726 15.0542 27.7016 14.3099 27.6989Z" fill="url(#paint1_linear_1_20380)"/>
<circle cx="22" cy="9" r="8.5" fill="url(#paint2_linear_1_20380)" stroke="#D1EBFF"/>
<defs>
<linearGradient id="paint0_linear_1_20380" x1="12.3489" y1="0.199828" x2="18.0316" y2="26.3114" gradientUnits="userSpaceOnUse">
<stop stop-color="#2473B3"/>
<stop offset="1" stop-color="#39A7FF"/>
</linearGradient>
<linearGradient id="paint1_linear_1_20380" x1="12.5164" y1="27.2706" x2="13.0812" y2="32.1945" gradientUnits="userSpaceOnUse">
<stop stop-color="#2473B3"/>
<stop offset="1" stop-color="#39A7FF"/>
</linearGradient>
<linearGradient id="paint2_linear_1_20380" x1="21.8302" y1="-1.65899" x2="26.374" y2="18.0297" gradientUnits="userSpaceOnUse">
<stop stop-color="#FF8A00"/>
<stop offset="1" stop-color="#FFC75B"/>
</linearGradient>
</defs>
</svg>
