<svg width="26" height="30" viewBox="0 0 26 30" fill="none" xmlns="http://www.w3.org/2000/svg">
<path d="M0.00267323 18.0253V17.7226C0.05437 16.753 0.360347 15.8137 0.89024 14.998C1.77381 14.008 2.38123 12.8054 2.65213 11.5099C2.71836 10.5227 2.65213 9.50924 2.71836 8.5089C3.19526 3.70462 7.95103 0.387695 12.5081 0.387695H12.6406C17.2771 0.387695 21.9137 3.70462 22.417 8.5089C22.5098 9.49608 22.417 10.5227 22.4965 11.5099C22.7608 12.8077 23.3691 14.0119 24.2584 14.998C24.8113 15.8044 25.1278 16.7478 25.1726 17.7226V18.0253C25.1806 19.3385 24.7101 20.6103 23.8477 21.6055C22.7415 22.7855 21.2377 23.5208 19.6219 23.672C14.9034 24.2774 10.1261 24.2774 5.40756 23.672C3.8105 23.5084 2.32759 22.774 1.23467 21.6055C0.399398 20.6007 -0.0386077 19.3279 0.00267323 18.0253Z" fill="url(#paint0_linear_1_32216)"/>
<path d="M14.3099 25.6989C13.3694 25.6331 12.601 25.6989 11.8327 25.6989C11.0707 25.6858 10.3099 25.7653 9.5674 25.9359C8.93153 26.0806 8.24268 26.4229 8.24268 27.1468C8.3094 27.8464 8.68869 28.4794 9.27596 28.8711C10.4072 29.735 11.8328 30.1269 13.2501 29.9635C14.6278 29.862 15.8871 29.1518 16.6812 28.0287C17.1201 27.4596 17.02 26.6462 16.456 26.1991C15.7881 25.8726 15.0542 25.7016 14.3099 25.6989Z" fill="url(#paint1_linear_1_32216)"/>
<defs>
<linearGradient id="paint0_linear_1_32216" x1="12.3489" y1="-1.80017" x2="18.0316" y2="24.3114" gradientUnits="userSpaceOnUse">
<stop stop-color="#2473B3"/>
<stop offset="1" stop-color="#39A7FF"/>
</linearGradient>
<linearGradient id="paint1_linear_1_32216" x1="12.5164" y1="25.2706" x2="13.0812" y2="30.1945" gradientUnits="userSpaceOnUse">
<stop stop-color="#2473B3"/>
<stop offset="1" stop-color="#39A7FF"/>
</linearGradient>
</defs>
</svg>
