<svg width="19" height="18" viewBox="0 0 19 18" fill="none" xmlns="http://www.w3.org/2000/svg">
<path d="M17.6384 5.15023C16.9037 3.59281 15.74 2.28499 14.274 1.36741C12.2349 0.0947584 9.81967 -0.309538 7.47827 0.231868C5.13686 0.769758 3.1435 2.19007 1.87085 4.22913C0.594673 6.2682 0.190376 8.67991 0.731782 11.0248C1.27319 13.3662 2.6935 15.3596 4.72905 16.6323C6.16342 17.5287 7.80874 18.0034 9.49272 18.0034H9.60171C11.2787 17.9823 12.9099 17.4971 14.3232 16.6041C14.7345 16.344 14.854 15.8026 14.5939 15.3912C14.3337 14.9799 13.7923 14.8604 13.381 15.1205C12.2455 15.8412 10.9306 16.2315 9.58061 16.2491C8.19546 16.2666 6.84194 15.8834 5.66069 15.1487C4.01889 14.1221 2.87631 12.519 2.44389 10.6346C2.01147 8.75023 2.33491 6.8096 3.36147 5.16781C5.47788 1.78226 9.95678 0.748665 13.3423 2.86507C14.5236 3.60335 15.4587 4.65452 16.0494 5.90609C16.6259 7.12601 16.8509 8.47952 16.6998 9.81546C16.647 10.2971 16.9916 10.733 17.4767 10.7858C17.9583 10.8385 18.3943 10.494 18.447 10.0088C18.6333 8.34593 18.3521 6.66546 17.6384 5.15023Z" fill="#A2A2A2"/>
</svg>
