<svg width="40" height="40" viewBox="0 0 40 40" fill="none" xmlns="http://www.w3.org/2000/svg">
<path d="M38.3805 8.12935C37.6428 4.79878 34.4141 1.7478 31.0743 1.09977C29.0398 0.69302 23.3638 0.190524 19.6096 0.231888C15.8554 0.190524 10.1794 0.69302 8.14488 1.09977C4.80512 1.7478 1.57643 4.79878 0.83877 8.12935C0.419002 10.1516 0.006128 12.9031 0 16.6588C0.006128 20.4145 0.419002 23.1652 0.83877 25.1874C1.57643 28.518 4.80512 31.569 8.14488 32.217C9.24333 32.4368 11.4034 32.6843 13.7497 32.8589C14.0155 33.2764 14.3035 33.7207 14.6153 34.1917C15.86 36.0769 16.8129 37.3906 17.5345 38.3059C18.7356 39.8295 20.4844 39.8295 21.6855 38.3059C22.407 37.3906 23.3592 36.0769 24.6047 34.1917C24.9165 33.7199 25.2037 33.2764 25.4703 32.8589C27.8165 32.6843 29.9767 32.4368 31.0759 32.217C34.4156 31.569 37.6443 28.518 38.382 25.1874C38.8018 23.1652 39.2146 20.4145 39.2208 16.6588C39.2146 12.9031 38.8018 10.1524 38.382 8.13012L38.3805 8.12935ZM21.7751 28.0454C21.6924 28.5119 21.2695 28.9347 20.803 29.0174C20.5204 29.0641 20.1351 29.1086 19.6088 29.1093C19.0834 29.1093 18.6981 29.0649 18.4146 29.0174C17.9482 28.9347 17.5253 28.5119 17.4426 28.0454C17.3959 27.7627 17.3514 27.3774 17.3507 26.8512C17.3507 26.3257 17.3951 25.9404 17.4426 25.657C17.5253 25.1905 17.9482 24.7676 18.4146 24.6849C18.6973 24.6382 19.0826 24.5938 19.6088 24.593C20.1343 24.593 20.5196 24.6374 20.803 24.6849C21.2695 24.7676 21.6924 25.1905 21.7751 25.657C21.8218 25.9396 21.8662 26.3249 21.867 26.8512C21.867 27.3766 21.8226 27.7619 21.7751 28.0454ZM26.4385 15.499C25.8472 16.3355 24.9609 17.0992 23.6495 17.9012C21.9896 18.9246 21.7238 19.3451 21.7238 20.1686V20.4941C21.7238 21.6615 20.7739 22.6114 19.6065 22.6114C18.4392 22.6114 17.4893 21.6615 17.4893 20.4941V19.7396C17.4893 18.7683 17.7321 17.9441 18.2316 17.2202C18.7157 16.5186 19.4411 15.8951 20.5173 15.2555C22.5005 14.0888 22.8636 13.4339 22.8636 12.5645C22.8636 11.4722 21.9329 10.7659 20.4936 10.7659C18.9156 10.7659 17.8884 11.4829 17.4403 12.8977C17.1446 13.8307 16.2806 14.4573 15.2909 14.4573C15.2357 14.4573 15.1806 14.455 15.1254 14.4512C14.4269 14.4006 13.801 14.0383 13.4088 13.4569C13.0205 12.8816 12.9186 12.1746 13.1292 11.5166C13.6118 10.0122 14.5372 8.76054 15.8049 7.89649C17.0887 7.02172 18.7103 6.55982 20.4928 6.55982C22.2753 6.55982 24.0624 7.1504 25.3309 8.22281C26.6361 9.32661 27.3554 10.8479 27.3554 12.5078C27.3554 13.6476 27.0559 14.6266 26.4385 15.499Z" fill="url(#paint0_linear_1_564)"/>
<defs>
<linearGradient id="paint0_linear_1_564" x1="19.2404" y1="-3.38517" x2="29.1402" y2="39.5136" gradientUnits="userSpaceOnUse">
<stop stop-color="#FF8A00"/>
<stop offset="1" stop-color="#FFC75B"/>
</linearGradient>
</defs>
</svg>
