<svg width="52" height="52" viewBox="0 0 52 52" fill="none" xmlns="http://www.w3.org/2000/svg">
<circle cx="26" cy="26" r="26" fill="#6CACDF"/>
<path d="M32.4444 16.0637C32.4444 12.1688 29.3292 9 25.5 9C21.6708 9 18.5556 12.1688 18.5556 16.0637C18.5556 19.9586 21.6708 23.1274 25.5 23.1274C29.3292 23.1274 32.4444 19.9586 32.4444 16.0637ZM25.5 23.1274C18.6075 23.1274 13 28.8312 13 35.8421V37.1661C13 37.5677 13.168 37.9503 13.462 38.2182C16.8452 41.3018 21.1204 43 25.5 43C29.8797 43 34.1549 41.3018 37.538 38.2182C37.6833 38.0858 37.7996 37.9236 37.8792 37.7423C37.9589 37.561 38 37.3647 38 37.1661V35.8421C38 28.8312 32.3925 23.1274 25.5 23.1274Z" fill="white"/>
</svg>
