<svg width="14" height="14" viewBox="0 0 14 14" fill="none" xmlns="http://www.w3.org/2000/svg">
<circle cx="7" cy="7" r="7" fill="#FF9900"/>
<path d="M7.00378 4.93854C6.41231 4.93854 5.93379 5.41828 5.93379 6.00854C5.93379 6.59879 6.41231 7.07853 7.00378 7.07853C7.59525 7.07853 8.07377 6.60001 8.07377 6.00854C8.07377 5.41706 7.59525 4.93854 7.00378 4.93854ZM7.1058 6.59029C7.07544 6.61701 7.039 6.63037 6.99407 6.63037C6.94913 6.63037 6.91269 6.61701 6.88233 6.59029C6.85197 6.56357 6.83739 6.52956 6.83739 6.48827C6.83739 6.44698 6.85197 6.41297 6.88233 6.38625C6.91148 6.35953 6.94913 6.34617 6.99407 6.34617C7.039 6.34617 7.07544 6.35953 7.1058 6.38625C7.13616 6.41297 7.15074 6.44698 7.15074 6.48827C7.15074 6.52956 7.13495 6.56479 7.1058 6.59029ZM7.37057 5.84336C7.35235 5.88101 7.32199 5.91988 7.28191 5.95995L7.18596 6.04983C7.15924 6.07655 7.13981 6.10327 7.12888 6.12999C7.11795 6.15671 7.11309 6.19193 7.11187 6.23444H6.87261C6.87261 6.15306 6.88233 6.08869 6.90055 6.04133C6.91876 5.99396 6.94913 5.95388 6.99042 5.91866C7.03172 5.88465 7.06329 5.85308 7.08394 5.82393C7.1058 5.79478 7.11552 5.7632 7.11552 5.7292C7.11552 5.64539 7.07908 5.60289 7.00621 5.60289C6.97342 5.60289 6.94548 5.61503 6.92484 5.63932C6.90419 5.66361 6.89326 5.69762 6.89205 5.73891H6.60906C6.61028 5.62718 6.6455 5.54095 6.71473 5.479C6.78395 5.41706 6.88111 5.38549 7.00621 5.38549C7.13131 5.38549 7.22725 5.41464 7.29527 5.47172C7.36328 5.5288 7.39729 5.61017 7.39729 5.71705C7.39729 5.7632 7.38757 5.80571 7.37057 5.84336ZM6.46332 7.55583C6.60785 7.4113 6.79974 7.33236 7.00378 7.33236C7.20782 7.33236 7.39971 7.4113 7.54424 7.55583L8.25474 8.26633L9.50326 7.0178V5.32719C9.50326 4.97255 9.21542 4.68471 8.86078 4.68471H5.15164C4.797 4.68471 4.50916 4.97255 4.50916 5.32719V7.02995L5.74918 8.26997L6.46332 7.55583ZM7.00378 4.81709C7.66084 4.81709 8.19522 5.35148 8.19522 6.00854C8.19522 6.66559 7.66084 7.19998 7.00378 7.19998C6.34673 7.19998 5.81234 6.66559 5.81234 6.00854C5.81234 5.35148 6.34673 4.81709 7.00378 4.81709ZM7.86488 4.56326H6.14269L6.54955 4.15639C6.79974 3.9062 7.20539 3.9062 7.4568 4.15639L7.86488 4.56326ZM9.91377 6.60608L9.62471 6.89513V6.31702L9.91377 6.60608ZM5.66295 8.3562L4.11565 9.9035C4.04643 9.80148 4.00635 9.67881 4.00635 9.54643V6.6996L5.66295 8.3562ZM4.09258 6.61458L4.08893 6.61094L4.38771 6.31338V6.90849L4.09258 6.61458ZM10 6.69231V9.54643C10 9.67881 9.95992 9.80148 9.89069 9.9035L8.33975 8.35256L10 6.69231ZM7.45801 7.64206L9.81418 9.99823C9.71337 10.1003 9.57735 10.1683 9.42675 10.1853L4.62697 10.1877C4.45815 10.1816 4.30512 10.11 4.19338 9.99823L6.54955 7.64206C6.80096 7.39066 7.20661 7.39066 7.45801 7.64206Z" fill="white"/>
</svg>
