<svg width="21" height="23" viewBox="0 0 21 23" fill="none" xmlns="http://www.w3.org/2000/svg">
<path d="M19.4858 5.42328C19.3047 3.65276 19.0162 2.27422 18.5598 1.73238C16.678 -0.495544 3.49595 -0.658586 1.99928 1.73238C1.63317 2.31816 1.3764 3.69181 1.20408 5.42621C0.932267 5.45743 0.681383 5.58739 0.499066 5.79139C0.316748 5.99539 0.215693 6.25925 0.215088 6.53285V8.7017C0.215429 8.93022 0.2858 9.15315 0.41672 9.34045C0.54764 9.52776 0.73282 9.67044 0.947314 9.74927C0.846267 13.1653 0.928276 16.7293 1.0796 18.5018C1.0796 19.8701 1.99879 19.6431 1.99879 19.6431H2.86038V21.1202C2.86038 21.706 3.46422 22.18 4.20816 22.18C4.95308 22.18 5.55692 21.706 5.55692 21.1202V19.6431H15.5806V21.1202C15.5806 21.706 16.184 22.18 16.9289 22.18C17.6728 22.18 18.2767 21.706 18.2767 21.1202V19.6431H18.5598C18.5598 19.6431 19.6415 19.7915 19.7108 19.1471C19.7108 17.3796 19.8221 13.4621 19.7304 9.7644C19.9575 9.69425 20.1561 9.55323 20.2973 9.362C20.4384 9.17078 20.5147 8.93938 20.5148 8.7017V6.53285C20.5143 6.25238 20.4081 5.9824 20.2174 5.77675C20.0267 5.57111 19.7654 5.44489 19.4858 5.42328ZM5.21863 2.05016H15.3404V3.58149H5.21863V2.05016ZM5.36312 17.8989C4.98152 17.8989 4.61555 17.7474 4.34572 17.4775C4.07589 17.2077 3.9243 16.8417 3.9243 16.4601C3.9243 16.0785 4.07589 15.7126 4.34572 15.4427C4.61555 15.1729 4.98152 15.0213 5.36312 15.0213C5.74472 15.0213 6.11069 15.1729 6.38053 15.4427C6.65036 15.7126 6.80195 16.0785 6.80195 16.4601C6.80195 16.8417 6.65036 17.2077 6.38053 17.4775C6.11069 17.7474 5.74472 17.8989 5.36312 17.8989ZM15.2862 17.8989C15.0929 17.9061 14.9002 17.8743 14.7194 17.8053C14.5387 17.7363 14.3738 17.6315 14.2345 17.4974C14.0951 17.3632 13.9843 17.2022 13.9086 17.0242C13.8328 16.8462 13.7938 16.6548 13.7937 16.4614C13.7936 16.2679 13.8326 16.0764 13.9082 15.8984C13.9838 15.7203 14.0945 15.5594 14.2337 15.4251C14.373 15.2908 14.5379 15.1859 14.7185 15.1168C14.8992 15.0477 15.092 15.0157 15.2853 15.0228C15.6575 15.0364 16.01 15.1938 16.2686 15.4619C16.5271 15.73 16.6717 16.0879 16.6718 16.4604C16.672 16.8329 16.5276 17.1909 16.2692 17.4592C16.0108 17.7275 15.6585 17.8851 15.2862 17.8989ZM17.1153 11.6018H3.44372V4.43087H17.1153V11.6018Z" fill="black"/>
</svg>
