<svg width="37" height="33" viewBox="0 0 37 33" fill="none" xmlns="http://www.w3.org/2000/svg">
<path d="M26.4052 0C32.675 0 36.3799 3.59975 36.3799 9.71127V9.77908H28.6757C25.0904 9.78538 22.186 12.6172 22.1795 16.1129C22.1747 19.6165 25.0824 22.461 28.6757 22.4657H36.3864V23.0223C36.3864 29.1338 32.6815 32.7478 26.4117 32.7478H9.97634C3.70494 32.7478 0 29.1338 0 23.0223V9.71127C0 3.59975 3.70494 0 9.97634 0H26.4052ZM18.8902 7.04969H8.62277C7.85946 7.05285 7.24009 7.65675 7.23684 8.40256C7.23362 9.15152 7.85461 9.76173 8.62277 9.76488H18.9031C19.6713 9.76173 20.2923 9.15152 20.2891 8.40099C20.2858 7.65202 19.6584 7.04655 18.8902 7.04969Z" fill="url(#paint0_linear_274_26083)"/>
<path opacity="0.4" d="M25.5388 16.913C25.9192 18.6435 27.4364 19.8611 29.1686 19.8294H35.0813C35.802 19.8294 36.3866 19.2325 36.3866 18.4947V13.889C36.3851 13.1528 35.802 12.5543 35.0813 12.5527H29.0294C27.0591 12.5591 25.4676 14.1946 25.4707 16.2101C25.4707 16.446 25.4939 16.6819 25.5388 16.913Z" fill="url(#paint1_linear_274_26083)"/>
<path d="M29.1084 18.0107C30.1132 18.0107 30.9277 17.1962 30.9277 16.1914C30.9277 15.1866 30.1132 14.3721 29.1084 14.3721C28.1036 14.3721 27.2891 15.1866 27.2891 16.1914C27.2891 17.1962 28.1036 18.0107 29.1084 18.0107Z" fill="url(#paint2_linear_274_26083)"/>
<defs>
<linearGradient id="paint0_linear_274_26083" x1="40.8273" y1="-6.43261" x2="-5.40964" y2="-3.69349" gradientUnits="userSpaceOnUse">
<stop stop-color="#2473B3"/>
<stop offset="0.988818" stop-color="#39A7FF"/>
</linearGradient>
<linearGradient id="paint1_linear_274_26083" x1="37.7189" y1="11.1233" x2="23.8876" y2="12.2294" gradientUnits="userSpaceOnUse">
<stop stop-color="#2473B3"/>
<stop offset="0.988818" stop-color="#39A7FF"/>
</linearGradient>
<linearGradient id="paint2_linear_274_26083" x1="31.3718" y1="13.6573" x2="26.745" y2="13.904" gradientUnits="userSpaceOnUse">
<stop stop-color="#2473B3"/>
<stop offset="0.988818" stop-color="#39A7FF"/>
</linearGradient>
</defs>
</svg>
